# Blender3D v249 OBJ File: hand.blend
# www.blender3d.org
v 0.290911 -0.570933 0.140286
v 0.268767 -0.570933 0.072755
v 0.205705 -0.570933 0.015505
v 0.111327 -0.570933 -0.022749
v 0.078720 -0.437785 -0.022749
v 0.145456 -0.324907 0.015505
v 0.190047 -0.249484 0.072755
v 0.205705 -0.222999 0.140286
v -0.000000 -0.078880 0.140286
v -0.000000 -0.116335 0.072755
v -0.000000 -0.222999 0.015505
v -0.000000 -0.382632 -0.022749
v -0.078720 -0.437785 -0.022749
v -0.145456 -0.324907 0.015505
v -0.190047 -0.249484 0.072755
v -0.205705 -0.222999 0.140286
v -0.290911 -0.570933 0.140286
v -0.268767 -0.570933 0.072755
v -0.205705 -0.570933 0.015505
v -0.111327 -0.570933 -0.022749
v -0.000000 -0.570933 -0.036182
v -0.078720 -0.704082 -0.022749
v -0.145456 -0.816960 0.015505
v -0.190047 -0.892383 0.072755
v -0.205705 -0.918868 0.140286
v 0.000000 -1.062987 0.140286
v 0.000000 -1.025532 0.072755
v 0.000000 -0.918868 0.015505
v 0.000000 -0.759234 -0.022749
v 0.078720 -0.704082 -0.022749
v 0.145456 -0.816960 0.015505
v 0.190047 -0.892383 0.072755
v 0.205705 -0.918868 0.140286
v 0.100000 -0.173205 0.000000
v 0.050000 0.173205 0.086603
v 0.086603 0.100000 0.150000
v 0.100000 0.000000 0.173205
v 0.086603 -0.100000 0.150000
v 0.050000 -0.173205 0.086603
v -0.050000 -0.173205 0.086603
v -0.086603 -0.100000 0.150000
v -0.100000 0.000000 0.173205
v -0.086603 0.100000 0.150000
v -0.050000 0.173205 0.086603
v -0.100000 0.173205 0.000000
v -0.173205 0.100000 0.000000
v -0.200000 0.000000 0.000000
v -0.173205 -0.100000 0.000000
v -0.100000 -0.173205 0.000000
v 0.000000 -0.200000 0.000000
v -0.050000 -0.173205 -0.086603
v -0.086603 -0.100000 -0.150000
v -0.100000 0.000000 -0.173205
v -0.086603 0.100000 -0.150000
v -0.050000 0.173205 -0.086603
v -0.000000 0.200000 -0.000000
v 0.050000 0.173205 -0.086603
v 0.086603 0.100000 -0.150000
v 0.100000 0.000000 -0.173205
v 0.086603 -0.100000 -0.150000
v 0.050000 -0.173205 -0.086603
v 0.173205 -0.100000 -0.000000
v 0.200000 0.000000 -0.000000
v 0.173205 0.100000 0.000000
v 0.100000 0.173205 -0.000000
vn 0.000000 0.000000 -1.000000
vn 0.206671 0.114444 -0.971679
vn 0.270089 0.000000 -0.962828
vn 0.000000 0.175542 -0.984466
vn -0.206671 0.114444 -0.971679
vn -0.270089 0.000000 -0.962828
vn -0.206671 -0.114444 -0.971679
vn 0.000000 -0.175542 -0.984466
vn 0.206671 -0.114444 -0.971679
vn 0.000000 0.000000 1.000000
vn 0.000000 1.000000 0.000000
vn 0.270302 0.839412 0.471480
vn 0.543474 0.839412 0.001617
vn 0.542772 -0.839839 -0.000061
vn 0.273141 -0.839412 0.469832
vn 0.000000 -1.000000 0.000000
vn -0.270302 -0.839412 0.471480
vn -0.273141 0.839412 0.469832
vn -0.543474 0.839412 -0.001617
vn -0.543474 -0.839412 0.001617
vn -0.273141 -0.839412 -0.469832
vn -0.270302 0.839412 -0.471480
vn 0.273141 0.839412 -0.469832
vn 0.270302 -0.839412 -0.471480
vn 0.873684 0.486435 0.000366
vn 0.437178 0.486435 -0.756432
vn 1.000000 0.000000 0.000000
vn 0.499985 0.000000 -0.866024
vn 0.873684 -0.486435 -0.000366
vn 0.435560 -0.485672 -0.757866
vn -0.437178 -0.486435 -0.756432
vn -0.499985 0.000000 -0.866024
vn -0.436506 0.486435 -0.756828
vn -0.873684 0.486435 -0.000366
vn -1.000000 0.000000 0.000000
vn -0.873684 -0.486435 0.000366
vn -0.436506 -0.486435 0.756828
vn -0.499985 0.000000 0.866024
vn -0.437178 0.486435 0.756432
vn 0.436506 0.486435 0.756828
vn 0.499985 0.000000 0.866024
vn 0.437178 -0.486435 0.756432
vn 0.546587 0.000000 -0.837397
vn 0.414380 -0.246742 -0.875973
vn 0.847652 -0.000763 -0.530503
vn 0.667013 -0.443709 -0.598468
vn 0.877407 0.000000 0.479690
vn 0.755547 -0.518052 0.400891
vn 0.000000 -0.725394 -0.688314
vn 0.000000 -0.955046 0.296365
vn 0.000000 -0.378185 -0.925718
vn -0.412702 -0.247200 -0.876644
vn -0.667013 -0.443709 -0.598468
vn -0.754479 -0.517350 0.403821
vn -0.847652 0.000763 -0.530503
vn -0.880367 0.000000 0.474227
vn -0.546587 0.000000 -0.837397
vn -0.414380 0.246742 -0.875973
vn -0.667013 0.443709 -0.598468
vn -0.754479 0.517350 0.403821
vn 0.000000 0.725394 -0.688314
vn 0.000000 0.955046 0.296365
vn 0.001740 0.378704 -0.925504
vn 0.412702 0.247200 -0.876644
vn 0.665822 0.443892 -0.599658
vn 0.755547 0.518052 0.400891
usemtl (null)
s 1
f 21//1 5//2 4//3
f 21//1 12//4 5//2
f 21//1 13//5 12//4
f 21//1 20//6 13//5
f 21//1 22//7 20//6
f 21//1 29//8 22//7
f 21//1 30//9 29//8
f 21//1 4//3 30//9
s off
f 25//10 26//10 33//10
f 8//10 9//10 16//10
s 1
f 56//11 35//12 65//13
f 34//14 39//15 50//16
f 39//15 40//17 50//16
f 56//11 44//18 35//12
f 56//11 45//19 44//18
f 40//17 49//20 50//16
f 49//20 51//21 50//16
f 56//11 55//22 45//19
f 56//11 57//23 55//22
f 51//21 61//24 50//16
f 61//24 34//14 50//16
f 56//11 65//13 57//23
f 57//23 65//13 64//25
f 57//23 64//25 58//26
f 58//26 64//25 63//27
f 58//26 63//27 59//28
f 59//28 63//27 62//29
f 59//28 62//29 60//30
f 60//30 62//29 34//14
f 60//30 34//14 61//24
f 52//31 60//30 61//24
f 52//31 61//24 51//21
f 53//32 59//28 60//30
f 53//32 60//30 52//31
f 54//33 58//26 59//28
f 54//33 59//28 53//32
f 55//22 57//23 58//26
f 55//22 58//26 54//33
f 45//19 55//22 54//33
f 45//19 54//33 46//34
f 46//34 54//33 53//32
f 46//34 53//32 47//35
f 47//35 53//32 52//31
f 47//35 52//31 48//36
f 48//36 52//31 51//21
f 48//36 51//21 49//20
f 41//37 48//36 49//20
f 41//37 49//20 40//17
f 42//38 47//35 48//36
f 42//38 48//36 41//37
f 43//39 46//34 47//35
f 43//39 47//35 42//38
f 44//18 45//19 46//34
f 44//18 46//34 43//39
f 35//12 44//18 43//39
f 35//12 43//39 36//40
f 36//40 43//39 42//38
f 36//40 42//38 37//41
f 37//41 42//38 41//37
f 37//41 41//37 38//42
f 38//42 41//37 40//17
f 38//42 40//17 39//15
f 62//29 38//42 39//15
f 62//29 39//15 34//14
f 63//27 37//41 38//42
f 63//27 38//42 62//29
f 64//25 36//40 37//41
f 64//25 37//41 63//27
f 65//13 35//12 36//40
f 65//13 36//40 64//25
s off
f 1//10 8//10 16//10
f 1//10 16//10 17//10
f 1//10 17//10 25//10
f 1//10 25//10 33//10
s 1
f 30//9 4//3 3//43
f 30//9 3//43 31//44
f 31//44 3//43 2//45
f 31//44 2//45 32//46
f 1//47 33//48 32//46
f 1//47 32//46 2//45
f 27//49 32//46 33//48
f 27//49 33//48 26//50
f 28//51 31//44 32//46
f 28//51 32//46 27//49
f 29//8 30//9 31//44
f 29//8 31//44 28//51
f 22//7 29//8 23//52
f 29//8 28//51 23//52
f 23//52 28//51 24//53
f 28//51 27//49 24//53
f 24//53 27//49 25//54
f 27//49 26//50 25//54
f 18//55 24//53 17//56
f 24//53 25//54 17//56
f 19//57 23//52 18//55
f 23//52 24//53 18//55
f 20//6 22//7 19//57
f 22//7 23//52 19//57
f 13//5 20//6 19//57
f 13//5 19//57 14//58
f 14//58 19//57 18//55
f 14//58 18//55 15//59
f 15//59 18//55 17//56
f 15//59 17//56 16//60
f 10//61 15//59 16//60
f 10//61 16//60 9//62
f 11//63 14//58 15//59
f 11//63 15//59 10//61
f 12//4 13//5 14//58
f 12//4 14//58 11//63
f 5//2 12//4 6//64
f 12//4 11//63 6//64
f 6//64 11//63 7//65
f 11//63 10//61 7//65
f 7//65 10//61 8//66
f 10//61 9//62 8//66
f 8//66 1//47 7//65
f 1//47 2//45 7//65
f 3//43 6//64 2//45
f 6//64 7//65 2//45
f 4//3 5//2 3//43
f 5//2 6//64 3//43
