# Blender3D v249 OBJ File: head.blend
# www.blender3d.org
v 0.192712 1.606313 0.000000
v 0.356086 1.497150 0.000000
v 0.465249 1.333777 0.000000
v 0.503582 1.141064 0.000000
v 0.465249 0.730836 0.000000
v 0.340149 0.383061 -0.000000
v 0.222686 0.150686 -0.092240
v 0.314257 0.383061 -0.130169
v 0.429834 0.730836 -0.178043
v 0.465249 1.141064 -0.192712
v 0.429834 1.333777 -0.178043
v 0.328981 1.497150 -0.136268
v 0.178043 1.606313 -0.073748
v 0.136268 1.606313 -0.136268
v 0.251791 1.497150 -0.251791
v 0.328981 1.333777 -0.328981
v 0.356086 1.141064 -0.356086
v 0.328981 0.730836 -0.328981
v 0.240522 0.383061 -0.240522
v 0.170437 0.150686 -0.170437
v 0.092240 0.150686 -0.222686
v 0.130169 0.383061 -0.314257
v 0.178043 0.730836 -0.429834
v 0.192712 1.141064 -0.465249
v 0.178043 1.333777 -0.429834
v 0.136268 1.497150 -0.328981
v 0.073748 1.606313 -0.178043
v -0.000000 1.606313 -0.192712
v -0.000000 1.497150 -0.356086
v -0.000000 1.333777 -0.465249
v -0.000000 1.141064 -0.503582
v -0.000000 0.730836 -0.465249
v -0.000000 0.383061 -0.340149
v -0.000000 0.150686 -0.241034
v -0.092240 0.150686 -0.222686
v -0.130169 0.383061 -0.314257
v -0.178043 0.730836 -0.429834
v -0.192712 1.141064 -0.465249
v -0.178043 1.333777 -0.429834
v -0.136268 1.497150 -0.328981
v -0.073748 1.606313 -0.178043
v -0.136268 1.606313 -0.136268
v -0.251791 1.497150 -0.251791
v -0.328981 1.333777 -0.328981
v -0.356086 1.141064 -0.356086
v -0.328981 0.730836 -0.328981
v -0.240522 0.383061 -0.240522
v -0.170437 0.150686 -0.170437
v -0.222686 0.150686 -0.092240
v -0.314257 0.383061 -0.130169
v -0.429834 0.730836 -0.178043
v -0.465249 1.141064 -0.192712
v -0.429834 1.333777 -0.178043
v -0.328981 1.497150 -0.136268
v -0.178043 1.606313 -0.073748
v -0.192712 1.606313 0.000000
v -0.356086 1.497150 0.000000
v -0.465249 1.333777 0.000000
v -0.503582 1.141064 0.000000
v -0.465249 0.730836 0.000000
v -0.340149 0.383061 0.000000
v -0.241034 0.150686 0.000000
v -0.222686 0.150686 0.092240
v -0.314257 0.383061 0.130170
v -0.429834 0.730836 0.178043
v -0.465249 1.141064 0.192713
v -0.429834 1.333777 0.178043
v -0.328981 1.497150 0.136268
v -0.178043 1.606313 0.073748
v 0.000000 1.644646 0.000000
v -0.136268 1.606313 0.136268
v -0.251791 1.497150 0.251791
v -0.328981 1.333777 0.328981
v -0.356086 1.141064 0.356086
v -0.328981 0.730836 0.328981
v -0.240522 0.383061 0.240522
v -0.170437 0.150686 0.170437
v -0.125768 0.150686 0.222686
v -0.155824 0.383061 0.314257
v -0.178043 0.730836 0.429834
v -0.192712 1.141064 0.465249
v -0.178043 1.333777 0.429834
v -0.136268 1.497150 0.328981
v -0.073748 1.606313 0.178043
v 0.000000 1.606313 0.192712
v 0.000000 1.497150 0.356086
v 0.000000 1.333777 0.465249
v 0.000000 1.141064 0.503582
v 0.000000 0.730836 0.495020
v 0.000000 0.383061 0.414576
v 0.000000 0.150686 0.335308
v 0.125768 0.150686 0.222686
v 0.155825 0.383061 0.314257
v 0.178043 0.730836 0.429834
v 0.192713 1.141064 0.465249
v 0.178043 1.333777 0.429834
v 0.136268 1.497150 0.328981
v 0.073748 1.606313 0.178043
v 0.136268 1.606313 0.136268
v 0.251791 1.497150 0.251791
v 0.328981 1.333777 0.328981
v 0.356086 1.141064 0.356086
v 0.328981 0.730836 0.328981
v 0.240522 0.383061 0.240522
v 0.170437 0.150686 0.170437
v 0.222686 0.150686 0.092240
v 0.314257 0.383061 0.130169
v 0.429834 0.730836 0.178043
v 0.465249 1.141064 0.192712
v 0.429834 1.333777 0.178043
v 0.328981 1.497150 0.136268
v 0.178043 1.606313 0.073748
v 0.241034 0.150686 -0.000000
v 0.096356 -0.232950 0.000000
v 0.178043 -0.178368 0.000000
v 0.232625 -0.096682 0.000000
v 0.251791 -0.000325 0.000000
v 0.232625 0.096031 0.000000
v 0.178043 0.177718 0.000000
v 0.125896 0.177718 0.125895
v 0.164491 0.096031 0.164490
v 0.178043 -0.000325 0.178043
v 0.164491 -0.096682 0.164490
v 0.125896 -0.178368 0.125895
v 0.068134 -0.232950 0.068134
v 0.000000 -0.232950 0.096356
v 0.000000 -0.178368 0.178043
v 0.000000 -0.096682 0.232624
v 0.000000 -0.000325 0.251791
v 0.000000 0.096031 0.232624
v 0.000000 0.177718 0.178043
v -0.125895 0.177718 0.125895
v -0.164490 0.096031 0.164490
v -0.178043 -0.000325 0.178043
v -0.164490 -0.096682 0.164490
v -0.125895 -0.178368 0.125895
v -0.068134 -0.232950 0.068134
v 0.000000 -0.252116 0.000000
v -0.096356 -0.232950 -0.000000
v -0.178043 -0.178368 -0.000000
v -0.232624 -0.096682 -0.000000
v -0.251791 -0.000325 -0.000000
v -0.232624 0.096031 -0.000000
v -0.178043 0.177718 -0.000000
v -0.125895 0.177718 -0.125895
v -0.164490 0.096031 -0.164490
v -0.178043 -0.000325 -0.178043
v -0.164490 -0.096682 -0.164490
v -0.125895 -0.178368 -0.125896
v -0.068134 -0.232950 -0.068134
v 0.000000 -0.232950 -0.096356
v 0.000000 -0.178368 -0.178043
v 0.000000 -0.096682 -0.232624
v 0.000000 -0.000325 -0.251791
v 0.000000 0.096031 -0.232624
v 0.000000 0.177718 -0.178043
v 0.125896 0.177718 -0.125895
v 0.164491 0.096031 -0.164490
v 0.178043 -0.000325 -0.178043
v 0.164491 -0.096682 -0.164490
v 0.125896 -0.178368 -0.125895
v 0.068134 -0.232950 -0.068134
v 0.107771 0.134028 -0.044640
v 0.082484 0.134028 -0.082484
v 0.044640 0.134028 -0.107771
v -0.000000 0.134028 -0.116651
v -0.044640 0.134028 -0.107771
v -0.082484 0.134028 -0.082484
v -0.107771 0.134028 -0.044640
v -0.116651 0.134028 -0.000000
v -0.107771 0.134028 0.044640
v -0.082484 0.134028 0.082484
v -0.044640 0.134028 0.107771
v 0.000000 0.134028 0.116651
v 0.044640 0.134028 0.107771
v 0.082484 0.134028 0.082484
v 0.107771 0.134028 0.044640
v 0.116651 0.134028 -0.000000
v 0.019494 0.150686 0.317852
v 0.024153 0.383061 0.399027
v 0.027597 0.730836 0.484916
v 0.029871 1.141064 0.497640
v 0.027597 1.333777 0.459759
v 0.021122 1.497150 0.351885
v 0.011431 1.606313 0.190439
v 0.006919 0.134028 0.115274
v -0.010693 1.606313 0.190585
v -0.019759 1.497150 0.352156
v -0.025816 1.333777 0.460114
v -0.027943 1.141064 0.498024
v -0.025816 0.730836 0.485568
v -0.022594 0.383061 0.400030
v -0.018236 0.150686 0.318978
v -0.006473 0.134028 0.115363
vn 0.406049 0.913816 0.000031
vn 0.376598 0.913297 -0.155034
vn 0.000000 0.999969 0.002747
vn 0.288614 0.913297 -0.287332
vn 0.155431 0.913816 -0.375134
vn 0.000885 0.913297 -0.407270
vn -0.155034 0.913297 -0.376598
vn -0.287088 0.913816 -0.287149
vn -0.375927 0.913297 -0.156652
vn -0.407270 0.913297 -0.000885
vn -0.375164 0.913816 0.155339
vn -0.288614 0.913297 0.287332
vn -0.156316 0.912748 0.377392
vn 0.155034 0.913297 0.376598
vn 0.287332 0.913297 0.288614
vn 0.375927 0.913297 0.156652
vn 0.418348 -0.908261 -0.001373
vn 0.296793 -0.908261 0.294839
vn 0.000000 -1.000000 0.000000
vn 0.001373 -0.908261 0.418348
vn -0.294839 -0.908261 0.296793
vn -0.418348 -0.908261 0.001373
vn -0.296793 -0.908261 -0.294839
vn -0.001373 -0.908261 -0.418348
vn 0.294839 -0.908261 -0.296793
vn 0.000000 0.912748 0.408490
vn 0.075777 0.921415 0.381085
vn -0.075777 0.921415 0.381085
vn -0.069279 -0.994593 0.077366
vn -0.025074 -0.991706 0.126055
vn -0.067866 -0.994812 0.075788
vn -0.016034 -0.996617 0.080608
vn -0.436750 -0.744438 0.504990
vn -0.000214 -0.698172 0.715903
vn -0.498764 -0.255715 0.828120
vn -0.000305 -0.274422 0.961577
vn -0.430403 -0.795404 0.426618
vn -0.574358 -0.322581 0.752342
vn -0.391369 -0.172033 0.903989
vn -0.000122 -0.123722 0.992309
vn -0.401471 -0.148839 0.903684
vn -0.225105 0.027406 0.973937
vn 0.000000 0.087008 0.996185
vn -0.383374 0.050050 0.922208
vn 0.000000 0.373974 0.927427
vn -0.180364 0.380749 0.906888
vn -0.354900 0.373974 0.856807
vn 0.000000 0.694479 0.719504
vn -0.138585 0.703726 0.696768
vn -0.275338 0.694479 0.664724
vn 0.067866 -0.994812 0.075788
vn 0.016102 -0.996588 0.080950
vn 0.069379 -0.994577 0.077477
vn 0.025074 -0.991706 0.126055
vn 0.138585 0.703726 0.696768
vn 0.274972 0.697134 0.662069
vn 0.180517 0.378887 0.907651
vn 0.355632 0.375103 0.856044
vn 0.225105 0.027284 0.973937
vn 0.382183 0.050966 0.922666
vn 0.391308 -0.172796 0.903867
vn 0.402631 -0.148717 0.903195
vn 0.498611 -0.256478 0.827998
vn 0.574480 -0.322916 0.752098
vn 0.436567 -0.744713 0.504746
vn 0.430433 -0.795404 0.426649
vn 0.132693 -0.990806 -0.026394
vn 0.132693 -0.990806 0.026394
vn 0.112492 -0.990806 0.075165
vn 0.092184 -0.992618 0.078809
vn 0.075165 -0.990806 0.112492
vn -0.092184 -0.992618 0.078809
vn -0.075165 -0.990806 0.112492
vn -0.112492 -0.990806 0.075165
vn -0.132693 -0.990806 0.026394
vn -0.132693 -0.990806 -0.026394
vn -0.112492 -0.990806 -0.075165
vn -0.075165 -0.990806 -0.112492
vn -0.026394 -0.990806 -0.132693
vn 0.026394 -0.990806 -0.132693
vn 0.075165 -0.990806 -0.112492
vn 0.112492 -0.990806 -0.075165
vn 0.590991 0.555559 -0.584826
vn 0.831446 0.555559 0.004334
vn 0.926817 0.375439 0.000214
vn 0.655507 0.375439 -0.655202
vn 1.000000 0.000000 0.000000
vn 0.707083 0.000000 -0.707083
vn 0.926817 -0.375439 -0.000214
vn 0.655202 -0.375439 -0.655507
vn 0.720359 -0.693594 -0.000488
vn 0.509018 -0.693594 -0.509690
vn -0.000488 -0.693594 -0.720359
vn -0.000214 -0.375439 -0.926817
vn 0.000000 0.000000 -1.000000
vn 0.000214 0.375439 -0.926817
vn 0.004334 0.555559 -0.831446
vn -0.584826 0.555559 -0.590991
vn -0.655202 0.375439 -0.655507
vn -0.707083 0.000000 -0.707083
vn -0.655507 -0.375439 -0.655202
vn -0.509690 -0.693594 -0.509018
vn -0.720328 -0.693594 0.000488
vn -0.926817 -0.375439 0.000214
vn -1.000000 0.000000 0.000000
vn -0.926817 0.375439 -0.000214
vn -0.831446 0.555559 -0.004334
vn -0.590991 0.555559 0.584826
vn -0.656697 0.374706 0.654439
vn -0.707083 0.000000 0.707083
vn -0.655202 -0.375439 0.655507
vn -0.509018 -0.693594 0.509690
vn 0.000488 -0.693594 0.720328
vn 0.000214 -0.375439 0.926817
vn -0.001556 -0.000732 0.999969
vn 0.001404 0.374737 0.927091
vn -0.000153 0.555559 0.831446
vn 0.584826 0.555559 0.590991
vn 0.656148 0.376141 0.654164
vn 0.705985 0.000732 0.708213
vn 0.655507 -0.375439 0.655202
vn 0.509690 -0.693594 0.509018
vn 0.606525 -0.754540 0.250557
vn 0.654561 -0.755974 -0.000702
vn 0.930876 -0.365307 -0.000031
vn 0.860012 -0.365307 0.356182
vn 0.976470 -0.215552 -0.000061
vn 0.902158 -0.215552 0.373608
vn 0.998688 0.050996 0.000000
vn 0.922666 0.050996 0.382183
vn 0.926542 0.376110 0.000153
vn 0.855953 0.376110 0.354717
vn 0.717704 0.696310 0.000336
vn 0.663533 0.695364 0.275979
vn 0.507248 0.696310 0.507736
vn 0.655568 0.377148 0.654164
vn 0.705222 0.051912 0.707022
vn 0.695456 -0.210669 0.686972
vn 0.706290 -0.359539 0.609790
vn 0.485977 -0.792322 0.368816
vn -0.507736 0.696310 0.507248
vn -0.655293 0.376110 0.655049
vn -0.706198 0.050996 0.706168
vn -0.693503 -0.210700 0.688925
vn -0.706046 -0.360332 0.609607
vn -0.483077 -0.794977 0.366894
vn -0.606037 -0.754540 0.251686
vn -0.860591 -0.365551 0.354534
vn -0.902127 -0.215552 0.373730
vn -0.922666 0.050996 0.382153
vn -0.856075 0.376110 0.354411
vn -0.663198 0.696310 0.274331
vn -0.718650 0.695364 -0.001038
vn -0.926145 0.377117 0.000916
vn -0.998688 0.050996 0.000000
vn -0.976470 -0.215552 0.000061
vn -0.930876 -0.365307 0.000031
vn -0.656240 -0.754540 0.000610
vn -0.606525 -0.754540 -0.250557
vn -0.860012 -0.365307 -0.356182
vn -0.902829 -0.214728 -0.372509
vn -0.922239 0.050081 -0.383343
vn -0.856014 0.377117 -0.353557
vn -0.662923 0.696310 -0.274972
vn -0.507248 0.696310 -0.507736
vn -0.655049 0.376110 -0.655293
vn -0.705313 0.050081 -0.707083
vn -0.690512 -0.215552 -0.690420
vn -0.656880 -0.365551 -0.659413
vn -0.464461 -0.754540 -0.463576
vn -0.251686 -0.754540 -0.606037
vn -0.356243 -0.365307 -0.859981
vn -0.373730 -0.215552 -0.902127
vn -0.382153 0.050996 -0.922666
vn -0.354411 0.376110 -0.856075
vn -0.274026 0.695364 -0.664327
vn 0.000336 0.696310 -0.717704
vn 0.000153 0.376110 -0.926542
vn 0.000000 0.050996 -0.998688
vn -0.001312 -0.214728 -0.976653
vn -0.000031 -0.365307 -0.930876
vn -0.000610 -0.754540 -0.656240
vn 0.250557 -0.754540 -0.606525
vn 0.357830 -0.365551 -0.859218
vn 0.373608 -0.215552 -0.902158
vn 0.381024 0.051881 -0.923093
vn 0.354717 0.376110 -0.855953
vn 0.274972 0.696310 -0.662923
vn 0.508896 0.695364 -0.507401
vn 0.655293 0.376110 -0.655049
vn 0.705252 0.051912 -0.707022
vn 0.691549 -0.214667 -0.689657
vn 0.659597 -0.365032 -0.657002
vn 0.463576 -0.754540 -0.464461
vn 0.607562 -0.753075 -0.252449
vn 0.860622 -0.365581 -0.354442
vn 0.901791 -0.217261 -0.373516
vn 0.922239 0.050050 -0.383343
vn 0.856075 0.376110 -0.354411
vn 0.663198 0.696310 -0.274331
usemtl (null)
s 1
f 1//1 13//2 70//3
f 13//2 14//4 70//3
f 14//4 27//5 70//3
f 27//5 28//6 70//3
f 28//6 41//7 70//3
f 41//7 42//8 70//3
f 42//8 55//9 70//3
f 55//9 56//10 70//3
f 56//10 69//11 70//3
f 69//11 71//12 70//3
f 71//12 84//13 70//3
f 98//14 99//15 70//3
f 99//15 112//16 70//3
f 112//16 1//1 70//3
f 114//17 125//18 138//19
f 125//18 126//20 138//19
f 126//20 137//21 138//19
f 137//21 139//22 138//19
f 139//22 150//23 138//19
f 150//23 151//24 138//19
f 151//24 162//25 138//19
f 162//25 114//17 138//19
f 85//26 185//27 70//3
f 185//27 98//14 70//3
f 84//13 187//28 70//3
f 187//28 85//26 70//3
s off
f 193//29 78//29 194//29
f 78//30 173//30 194//30
f 91//31 193//31 174//31
f 193//32 194//32 174//32
s 1
f 193//33 91//34 192//35
f 91//34 90//36 192//35
f 78//37 193//33 79//38
f 193//33 192//35 79//38
f 192//35 90//36 191//39
f 90//36 89//40 191//39
f 79//38 192//35 80//41
f 192//35 191//39 80//41
f 191//39 89//40 190//42
f 89//40 88//43 190//42
f 80//41 191//39 190//42
f 80//41 190//42 81//44
f 190//42 88//43 87//45
f 190//42 87//45 189//46
f 81//44 190//42 82//47
f 190//42 189//46 82//47
f 189//46 87//45 86//48
f 189//46 86//48 188//49
f 82//47 189//46 83//50
f 189//46 188//49 83//50
f 188//49 86//48 85//26
f 188//49 85//26 187//28
f 83//50 188//49 84//13
f 188//49 187//28 84//13
s off
f 179//51 91//51 174//51
f 179//52 174//52 186//52
f 92//53 179//53 186//53
f 92//54 186//54 175//54
s 1
f 184//55 97//56 98//14
f 184//55 98//14 185//27
f 86//48 184//55 85//26
f 184//55 185//27 85//26
f 183//57 96//58 97//56
f 183//57 97//56 184//55
f 87//45 183//57 86//48
f 183//57 184//55 86//48
f 182//59 95//60 96//58
f 182//59 96//58 183//57
f 88//43 182//59 87//45
f 182//59 183//57 87//45
f 181//61 94//62 182//59
f 94//62 95//60 182//59
f 89//40 181//61 182//59
f 89//40 182//59 88//43
f 180//63 93//64 94//62
f 180//63 94//62 181//61
f 90//36 180//63 181//61
f 90//36 181//61 89//40
f 179//65 92//66 93//64
f 179//65 93//64 180//63
f 91//34 179//65 180//63
f 91//34 180//63 90//36
s off
f 7//67 113//67 163//67
f 113//67 178//67 163//67
f 113//68 106//68 177//68
f 113//68 177//68 178//68
f 106//69 105//69 176//69
f 106//69 176//69 177//69
f 105//70 92//70 175//70
f 105//71 175//71 176//71
f 78//72 77//72 173//72
f 77//73 172//73 173//73
f 77//74 63//74 171//74
f 77//74 171//74 172//74
f 63//75 62//75 170//75
f 63//75 170//75 171//75
f 62//76 49//76 169//76
f 62//76 169//76 170//76
f 49//77 48//77 168//77
f 49//77 168//77 169//77
f 48//78 35//78 167//78
f 48//78 167//78 168//78
f 35//79 34//79 166//79
f 35//79 166//79 167//79
f 34//80 21//80 165//80
f 34//80 165//80 166//80
f 21//81 20//81 164//81
f 21//81 164//81 165//81
f 20//82 7//82 163//82
f 20//82 163//82 164//82
s 1
f 157//83 119//84 118//85
f 157//83 118//85 158//86
f 158//86 118//85 117//87
f 158//86 117//87 159//88
f 159//88 117//87 116//89
f 159//88 116//89 160//90
f 160//90 116//89 115//91
f 160//90 115//91 161//92
f 161//92 115//91 114//17
f 161//92 114//17 162//25
f 152//93 161//92 162//25
f 152//93 162//25 151//24
f 153//94 160//90 161//92
f 153//94 161//92 152//93
f 154//95 159//88 160//90
f 154//95 160//90 153//94
f 155//96 158//86 159//88
f 155//96 159//88 154//95
f 156//97 157//83 158//86
f 156//97 158//86 155//96
f 145//98 156//97 155//96
f 145//98 155//96 146//99
f 146//99 155//96 154//95
f 146//99 154//95 147//100
f 147//100 154//95 153//94
f 147//100 153//94 148//101
f 148//101 153//94 152//93
f 148//101 152//93 149//102
f 149//102 152//93 151//24
f 149//102 151//24 150//23
f 140//103 149//102 150//23
f 140//103 150//23 139//22
f 141//104 148//101 149//102
f 141//104 149//102 140//103
f 142//105 147//100 148//101
f 142//105 148//101 141//104
f 143//106 146//99 147//100
f 143//106 147//100 142//105
f 144//107 145//98 146//99
f 144//107 146//99 143//106
f 132//108 144//107 143//106
f 132//108 143//106 133//109
f 133//109 143//106 142//105
f 133//109 142//105 134//110
f 134//110 142//105 141//104
f 134//110 141//104 135//111
f 135//111 141//104 140//103
f 135//111 140//103 136//112
f 136//112 140//103 139//22
f 136//112 139//22 137//21
f 127//113 136//112 137//21
f 127//113 137//21 126//20
f 128//114 135//111 136//112
f 128//114 136//112 127//113
f 129//115 134//110 135//111
f 129//115 135//111 128//114
f 130//116 133//109 134//110
f 130//116 134//110 129//115
f 131//117 132//108 133//109
f 131//117 133//109 130//116
f 120//118 131//117 130//116
f 120//118 130//116 121//119
f 121//119 130//116 122//120
f 130//116 129//115 122//120
f 122//120 129//115 128//114
f 122//120 128//114 123//121
f 123//121 128//114 127//113
f 123//121 127//113 124//122
f 124//122 127//113 126//20
f 124//122 126//20 125//18
f 115//91 124//122 125//18
f 115//91 125//18 114//17
f 116//89 123//121 124//122
f 116//89 124//122 115//91
f 117//87 122//120 123//121
f 117//87 123//121 116//89
f 118//85 121//119 122//120
f 118//85 122//120 117//87
f 119//84 120//118 121//119
f 119//84 121//119 118//85
f 106//123 113//124 6//125
f 106//123 6//125 107//126
f 107//126 6//125 5//127
f 107//126 5//127 108//128
f 108//128 5//127 4//129
f 108//128 4//129 109//130
f 109//130 4//129 3//131
f 109//130 3//131 110//132
f 110//132 3//131 2//133
f 110//132 2//133 111//134
f 1//1 112//16 111//134
f 1//1 111//134 2//133
f 100//135 111//134 112//16
f 100//135 112//16 99//15
f 101//136 110//132 111//134
f 101//136 111//134 100//135
f 102//137 109//130 110//132
f 102//137 110//132 101//136
f 103//138 108//128 109//130
f 103//138 109//130 102//137
f 104//139 107//126 108//128
f 104//139 108//128 103//138
f 105//140 106//123 107//126
f 105//140 107//126 104//139
f 92//66 105//140 104//139
f 92//66 104//139 93//64
f 93//64 104//139 103//138
f 93//64 103//138 94//62
f 94//62 103//138 102//137
f 94//62 102//137 95//60
f 95//60 102//137 96//58
f 102//137 101//136 96//58
f 96//58 101//136 100//135
f 96//58 100//135 97//56
f 97//56 100//135 99//15
f 97//56 99//15 98//14
f 72//141 83//50 84//13
f 72//141 84//13 71//12
f 73//142 82//47 83//50
f 73//142 83//50 72//141
f 74//143 81//44 82//47
f 74//143 82//47 73//142
f 75//144 80//41 81//44
f 75//144 81//44 74//143
f 76//145 79//38 75//144
f 79//38 80//41 75//144
f 77//146 78//37 76//145
f 78//37 79//38 76//145
f 63//147 77//146 76//145
f 63//147 76//145 64//148
f 64//148 76//145 75//144
f 64//148 75//144 65//149
f 65//149 75//144 74//143
f 65//149 74//143 66//150
f 66//150 74//143 73//142
f 66//150 73//142 67//151
f 67//151 73//142 72//141
f 67//151 72//141 68//152
f 68//152 72//141 71//12
f 68//152 71//12 69//11
f 57//153 68//152 69//11
f 57//153 69//11 56//10
f 58//154 67//151 68//152
f 58//154 68//152 57//153
f 59//155 66//150 67//151
f 59//155 67//151 58//154
f 60//156 65//149 66//150
f 60//156 66//150 59//155
f 61//157 64//148 65//149
f 61//157 65//149 60//156
f 62//158 63//147 64//148
f 62//158 64//148 61//157
f 49//159 62//158 61//157
f 49//159 61//157 50//160
f 50//160 61//157 60//156
f 50//160 60//156 51//161
f 51//161 60//156 59//155
f 51//161 59//155 52//162
f 52//162 59//155 58//154
f 52//162 58//154 53//163
f 53//163 58//154 57//153
f 53//163 57//153 54//164
f 54//164 57//153 56//10
f 54//164 56//10 55//9
f 43//165 54//164 55//9
f 43//165 55//9 42//8
f 44//166 53//163 54//164
f 44//166 54//164 43//165
f 45//167 52//162 53//163
f 45//167 53//163 44//166
f 46//168 51//161 52//162
f 46//168 52//162 45//167
f 47//169 50//160 51//161
f 47//169 51//161 46//168
f 48//170 49//159 50//160
f 48//170 50//160 47//169
f 35//171 48//170 47//169
f 35//171 47//169 36//172
f 36//172 47//169 46//168
f 36//172 46//168 37//173
f 37//173 46//168 45//167
f 37//173 45//167 38//174
f 38//174 45//167 44//166
f 38//174 44//166 39//175
f 39//175 44//166 43//165
f 39//175 43//165 40//176
f 40//176 43//165 42//8
f 40//176 42//8 41//7
f 29//177 40//176 41//7
f 29//177 41//7 28//6
f 30//178 39//175 40//176
f 30//178 40//176 29//177
f 31//179 38//174 39//175
f 31//179 39//175 30//178
f 32//180 37//173 38//174
f 32//180 38//174 31//179
f 33//181 36//172 37//173
f 33//181 37//173 32//180
f 34//182 35//171 36//172
f 34//182 36//172 33//181
f 21//183 34//182 33//181
f 21//183 33//181 22//184
f 22//184 33//181 32//180
f 22//184 32//180 23//185
f 23//185 32//180 31//179
f 23//185 31//179 24//186
f 24//186 31//179 30//178
f 24//186 30//178 25//187
f 25//187 30//178 29//177
f 25//187 29//177 26//188
f 26//188 29//177 28//6
f 26//188 28//6 27//5
f 15//189 26//188 27//5
f 15//189 27//5 14//4
f 16//190 25//187 26//188
f 16//190 26//188 15//189
f 17//191 24//186 25//187
f 17//191 25//187 16//190
f 18//192 23//185 24//186
f 18//192 24//186 17//191
f 19//193 22//184 23//185
f 19//193 23//185 18//192
f 20//194 21//183 22//184
f 20//194 22//184 19//193
f 7//195 20//194 19//193
f 7//195 19//193 8//196
f 8//196 19//193 9//197
f 19//193 18//192 9//197
f 9//197 18//192 10//198
f 18//192 17//191 10//198
f 10//198 17//191 16//190
f 10//198 16//190 11//199
f 11//199 16//190 15//189
f 11//199 15//189 12//200
f 12//200 15//189 14//4
f 12//200 14//4 13//2
f 13//2 1//1 2//133
f 13//2 2//133 12//200
f 3//131 11//199 12//200
f 3//131 12//200 2//133
f 4//129 10//198 11//199
f 4//129 11//199 3//131
f 5//127 9//197 10//198
f 5//127 10//198 4//129
f 6//125 8//196 9//197
f 6//125 9//197 5//127
f 113//124 7//195 8//196
f 113//124 8//196 6//125
