# Blender3D v249 OBJ File: lowarm.blend
# www.blender3d.org
v 0.000000 0.200000 0.000000
v 0.076537 0.184776 0.000000
v 0.141421 0.141421 0.000000
v 0.184776 0.076537 -0.000000
v 0.200000 -0.000000 -0.000000
v 0.184776 -0.076537 -0.000000
v 0.141421 -0.141421 -0.000000
v 0.100000 -0.141421 -0.100000
v 0.130656 -0.076537 -0.130656
v 0.141421 0.000000 -0.141421
v 0.130656 0.076537 -0.130656
v 0.100000 0.141421 -0.100000
v 0.054120 0.184776 -0.054120
v -0.000000 0.184776 -0.076537
v -0.000000 0.141421 -0.141421
v -0.000000 0.076537 -0.184776
v -0.000000 0.000000 -0.200000
v -0.000000 -0.076537 -0.184776
v -0.000000 -0.141421 -0.141421
v -0.100000 -0.141421 -0.100000
v -0.130656 -0.076537 -0.130656
v -0.141421 0.000000 -0.141421
v -0.130656 0.076537 -0.130656
v -0.100000 0.141421 -0.100000
v -0.054120 0.184776 -0.054120
v -0.076537 0.184776 0.000000
v -0.141421 0.141421 0.000000
v -0.184776 0.076537 0.000000
v -0.200000 -0.000000 0.000000
v -0.184776 -0.076537 0.000000
v -0.141421 -0.141421 0.000000
v -0.100000 -0.141421 0.100000
v -0.130656 -0.076537 0.130656
v -0.141421 -0.000000 0.141421
v -0.130656 0.076537 0.130656
v -0.100000 0.141421 0.100000
v -0.054120 0.184776 0.054120
v 0.000000 0.184776 0.076537
v 0.000000 0.141421 0.141421
v 0.000000 0.076537 0.184776
v 0.000000 -0.000000 0.200000
v 0.000000 -0.076537 0.184776
v 0.000000 -0.141421 0.141421
v 0.100000 -0.141421 0.100000
v 0.130656 -0.076537 0.130656
v 0.141421 -0.000000 0.141421
v 0.130656 0.076537 0.130656
v 0.100000 0.141421 0.100000
v 0.054120 0.184776 0.054120
v 0.141421 -1.694686 -0.000000
v 0.100000 -1.694686 -0.100000
v -0.000000 -1.694686 -0.141421
v -0.100000 -1.694686 -0.100000
v -0.141421 -1.694686 0.000000
v -0.100000 -1.694686 0.100000
v 0.000000 -1.694686 0.141421
v 0.100000 -1.694686 0.100000
v 0.191218 -0.506439 -0.000000
v 0.135211 -0.506439 -0.135211
v -0.000000 -0.506439 -0.191218
v -0.135211 -0.506439 -0.135211
v -0.191218 -0.506439 0.000000
v -0.135211 -0.506439 0.135211
v 0.000000 -0.506439 0.191218
v 0.135211 -0.506439 0.135211
v 0.162575 -0.158757 -0.000000
v 0.114958 -0.158757 -0.114958
v -0.000000 -0.158757 -0.162575
v -0.114958 -0.158757 -0.114958
v -0.162575 -0.158757 0.000000
v -0.114958 -0.158757 0.114958
v 0.000000 -0.158757 0.162575
v 0.114958 -0.158757 0.114958
v 0.060793 -1.713445 -0.000000
v 0.042987 -1.713445 -0.042987
v -0.000000 -1.713445 -0.060793
v -0.042987 -1.713445 -0.042987
v -0.060793 -1.713445 -0.000000
v -0.042987 -1.713445 0.042987
v 0.000000 -1.713445 0.060793
v 0.042987 -1.713445 0.042987
vn 0.296793 0.908261 -0.294839
vn 0.000000 1.000000 0.000000
vn 0.418348 0.908261 0.001373
vn 0.001373 0.908261 -0.418348
vn -0.294839 0.908261 -0.296793
vn -0.418348 0.908261 -0.001373
vn -0.296793 0.908261 0.294839
vn -0.001373 0.908261 0.418348
vn 0.294839 0.908261 0.296793
vn 0.225620 -0.969723 0.093455
vn 0.093455 -0.969723 0.225620
vn -0.093455 -0.969723 0.225620
vn -0.225620 -0.969723 0.093455
vn -0.225620 -0.969723 -0.093455
vn -0.093455 -0.969723 -0.225620
vn 0.093455 -0.969723 -0.225620
vn 0.225620 -0.969723 -0.093455
vn 0.636158 0.437422 0.635548
vn 0.706961 0.020081 0.706931
vn 0.999786 0.020081 0.000000
vn 0.899228 0.437422 -0.000427
vn 0.613073 0.748100 0.253943
vn 0.613074 0.748100 0.253943
vn 0.000427 0.437422 0.899228
vn 0.000000 0.020081 0.999786
vn 0.253943 0.748100 0.613073
vn -0.635548 0.437422 0.636158
vn -0.706931 0.020081 0.706961
vn -0.253943 0.748100 0.613073
vn -0.253943 0.748100 0.613074
vn -0.899228 0.437422 0.000427
vn -0.999786 0.020081 0.000000
vn -0.613073 0.748100 0.253943
vn -0.636158 0.437422 -0.635548
vn -0.705588 0.020386 -0.708304
vn -0.613073 0.748100 -0.253943
vn -0.000427 0.437422 -0.899228
vn 0.001892 0.020386 -0.999786
vn -0.253943 0.748100 -0.613073
vn 0.635548 0.437422 -0.636158
vn 0.706931 0.020081 -0.706961
vn 0.253943 0.748100 -0.613073
vn 0.253943 0.748100 -0.613074
vn 0.613074 0.748100 -0.253943
vn 0.613073 0.748100 -0.253943
vn 0.585498 -0.558397 0.587664
vn 0.829554 -0.558397 0.001526
vn -0.001526 -0.558397 0.829554
vn -0.587664 -0.558397 0.585498
vn -0.828700 -0.559648 -0.000336
vn -0.585742 -0.559648 -0.586230
vn 0.001526 -0.558397 -0.829554
vn 0.587664 -0.558397 -0.585498
vn 0.702933 0.123508 0.700400
vn 0.992096 0.125340 -0.000824
vn 0.926817 -0.375439 -0.000214
vn 0.655507 -0.375439 0.655202
vn 1.000000 0.000000 0.000000
vn 0.707083 0.000000 0.707083
vn 0.926817 0.375439 0.000214
vn 0.655202 0.375439 0.655507
vn 0.720328 0.693594 0.000488
vn 0.509018 0.693594 0.509690
vn 0.001007 0.694143 0.719810
vn -0.000214 0.375439 0.926817
vn 0.000000 0.000000 1.000000
vn 0.000214 -0.375439 0.926817
vn 0.001770 0.123508 0.992309
vn -0.700400 0.123508 0.702933
vn -0.655202 -0.375439 0.655507
vn -0.707083 0.000000 0.707083
vn -0.656697 0.374706 0.654439
vn -0.509690 0.693594 0.509018
vn -0.720359 0.693594 -0.000488
vn -0.926817 0.375439 -0.000214
vn -1.000000 0.000000 0.000000
vn -0.926817 -0.375439 0.000214
vn -0.992309 0.123508 0.001770
vn -0.702933 0.123508 -0.700400
vn -0.655507 -0.375439 -0.655202
vn -0.707083 0.000000 -0.707083
vn -0.655202 0.375439 -0.655507
vn -0.509018 0.693594 -0.509690
vn 0.000488 0.693594 -0.720328
vn 0.000214 0.375439 -0.926817
vn 0.000000 0.000000 -1.000000
vn -0.000214 -0.375439 -0.926817
vn -0.001770 0.123508 -0.992309
vn 0.700400 0.123508 -0.702933
vn 0.654439 -0.374706 -0.656697
vn 0.707083 0.000000 -0.707083
vn 0.655507 0.375439 -0.655202
vn 0.509690 0.693594 -0.509018
usemtl (null)
s 1
f 13//1 1//2 2//3
f 14//4 1//2 13//1
f 25//5 1//2 14//4
f 26//6 1//2 25//5
f 37//7 1//2 26//6
f 38//8 1//2 37//7
f 49//9 1//2 38//8
f 2//3 1//2 49//9
s off
f 50//10 57//10 81//10
f 50//10 81//10 74//10
f 57//11 56//11 80//11
f 57//11 80//11 81//11
f 56//12 55//12 79//12
f 56//12 79//12 80//12
f 55//13 54//13 78//13
f 55//13 78//13 79//13
f 54//14 53//14 77//14
f 54//14 77//14 78//14
f 53//15 52//15 76//15
f 53//15 76//15 77//15
f 52//16 51//16 75//16
f 52//16 75//16 76//16
f 51//17 50//17 74//17
f 51//17 74//17 75//17
s 1
f 73//18 65//19 58//20
f 73//18 58//20 66//21
s off
f 44//22 73//22 66//22
f 44//23 66//23 7//23
s 1
f 72//24 64//25 65//19
f 72//24 65//19 73//18
s off
f 43//26 72//26 73//26
f 43//26 73//26 44//26
s 1
f 71//27 63//28 64//25
f 71//27 64//25 72//24
s off
f 32//29 71//29 72//29
f 32//30 72//30 43//30
s 1
f 70//31 62//32 63//28
f 70//31 63//28 71//27
s off
f 31//33 70//33 71//33
f 31//33 71//33 32//33
s 1
f 69//34 61//35 62//32
f 69//34 62//32 70//31
s off
f 20//36 69//36 70//36
f 20//36 70//36 31//36
s 1
f 68//37 60//38 61//35
f 68//37 61//35 69//34
s off
f 19//39 68//39 69//39
f 19//39 69//39 20//39
s 1
f 67//40 59//41 60//38
f 67//40 60//38 68//37
s off
f 8//42 67//42 68//42
f 8//43 68//43 19//43
s 1
f 66//21 58//20 59//41
f 66//21 59//41 67//40
s off
f 7//44 66//44 67//44
f 7//45 67//45 8//45
s 1
f 65//19 57//46 50//47
f 65//19 50//47 58//20
f 64//25 56//48 57//46
f 64//25 57//46 65//19
f 63//28 55//49 56//48
f 63//28 56//48 64//25
f 62//32 54//50 55//49
f 62//32 55//49 63//28
f 61//35 53//51 54//50
f 61//35 54//50 62//32
f 60//38 52//52 53//51
f 60//38 53//51 61//35
f 59//41 51//53 52//52
f 59//41 52//52 60//38
f 58//20 50//47 51//53
f 58//20 51//53 59//41
f 44//54 7//55 6//56
f 44//54 6//56 45//57
f 45//57 6//56 5//58
f 45//57 5//58 46//59
f 46//59 5//58 4//60
f 46//59 4//60 47//61
f 47//61 4//60 3//62
f 47//61 3//62 48//63
f 48//63 3//62 2//3
f 48//63 2//3 49//9
f 39//64 48//63 49//9
f 39//64 49//9 38//8
f 40//65 47//61 48//63
f 40//65 48//63 39//64
f 41//66 46//59 47//61
f 41//66 47//61 40//65
f 42//67 45//57 46//59
f 42//67 46//59 41//66
f 43//68 44//54 45//57
f 43//68 45//57 42//67
f 32//69 43//68 42//67
f 32//69 42//67 33//70
f 33//70 42//67 41//66
f 33//70 41//66 34//71
f 34//71 41//66 40//65
f 34//71 40//65 35//72
f 35//72 40//65 39//64
f 35//72 39//64 36//73
f 36//73 39//64 38//8
f 36//73 38//8 37//7
f 27//74 36//73 37//7
f 27//74 37//7 26//6
f 28//75 35//72 36//73
f 28//75 36//73 27//74
f 29//76 34//71 35//72
f 29//76 35//72 28//75
f 30//77 33//70 34//71
f 30//77 34//71 29//76
f 31//78 32//69 33//70
f 31//78 33//70 30//77
f 20//79 31//78 30//77
f 20//79 30//77 21//80
f 21//80 30//77 29//76
f 21//80 29//76 22//81
f 22//81 29//76 28//75
f 22//81 28//75 23//82
f 23//82 28//75 27//74
f 23//82 27//74 24//83
f 24//83 27//74 26//6
f 24//83 26//6 25//5
f 15//84 24//83 25//5
f 15//84 25//5 14//4
f 16//85 23//82 24//83
f 16//85 24//83 15//84
f 17//86 22//81 23//82
f 17//86 23//82 16//85
f 18//87 21//80 22//81
f 18//87 22//81 17//86
f 19//88 20//79 21//80
f 19//88 21//80 18//87
f 8//89 19//88 18//87
f 8//89 18//87 9//90
f 9//90 18//87 17//86
f 9//90 17//86 10//91
f 10//91 17//86 16//85
f 10//91 16//85 11//92
f 11//92 16//85 15//84
f 11//92 15//84 12//93
f 12//93 15//84 14//4
f 12//93 14//4 13//1
f 3//62 12//93 13//1
f 3//62 13//1 2//3
f 4//60 11//92 12//93
f 4//60 12//93 3//62
f 5//58 10//91 11//92
f 5//58 11//92 4//60
f 6//56 9//90 10//91
f 6//56 10//91 5//58
f 7//55 8//89 9//90
f 7//55 9//90 6//56
