# Blender3D v249 OBJ File: pelvis.blend
# www.blender3d.org
v 0.353553 0.353553 0.000000
v 0.461940 0.191342 0.000000
v 0.500000 0.000000 0.000000
v 0.461940 -0.191342 0.000000
v 0.426777 -0.191342 -0.176777
v 0.461940 0.000000 -0.191342
v 0.426777 0.191342 -0.176777
v 0.326641 0.353553 -0.135299
v 0.250000 0.353553 -0.250000
v 0.326641 0.191342 -0.326641
v 0.353553 0.000000 -0.353553
v 0.326641 -0.191342 -0.326641
v 0.176777 -0.191342 -0.426777
v 0.191342 0.000000 -0.461940
v 0.176777 0.191342 -0.426777
v 0.135299 0.353553 -0.326641
v -0.000000 0.353553 -0.353553
v -0.000000 0.191342 -0.461940
v -0.000000 0.000000 -0.500000
v -0.000000 -0.191342 -0.461940
v -0.176777 -0.191342 -0.426777
v -0.191342 0.000000 -0.461940
v -0.176777 0.191342 -0.426777
v -0.135299 0.353553 -0.326641
v -0.250000 0.353553 -0.250000
v -0.326641 0.191342 -0.326641
v -0.353553 0.000000 -0.353553
v -0.326641 -0.191342 -0.326641
v -0.426777 -0.191342 -0.176777
v -0.461940 0.000000 -0.191342
v -0.426777 0.191342 -0.176777
v -0.326641 0.353553 -0.135299
v -0.353553 0.353553 0.000000
v -0.461940 0.191342 0.000000
v -0.500000 0.000000 0.000000
v -0.461940 -0.191342 0.000000
v -0.426777 -0.191342 0.176777
v -0.461940 0.000000 0.191342
v -0.426777 0.191342 0.176777
v -0.326641 0.353553 0.135299
v -0.250000 0.353553 0.250000
v -0.326641 0.191342 0.326641
v -0.353553 0.000000 0.353554
v -0.326641 -0.191342 0.326641
v -0.176777 -0.191342 0.426777
v -0.191341 0.000000 0.461940
v -0.176777 0.191342 0.426777
v -0.135299 0.353553 0.326641
v 0.000000 0.353553 0.353553
v 0.000000 0.191342 0.461940
v 0.000000 0.000000 0.500000
v 0.000000 -0.191342 0.461940
v 0.176777 -0.191342 0.426777
v 0.191342 0.000000 0.461940
v 0.176777 0.191342 0.426777
v 0.135299 0.353553 0.326641
v 0.250000 0.353553 0.250000
v 0.326641 0.191342 0.326641
v 0.353554 0.000000 0.353553
v 0.326641 -0.191342 0.326641
v 0.426777 -0.191342 0.176776
v 0.461940 0.000000 0.191341
v 0.426777 0.191342 0.176776
v 0.326641 0.353553 0.135299
v 0.542110 -0.191342 -0.000000
v 0.500844 -0.191342 -0.207456
v 0.383329 -0.191342 -0.383329
v 0.207456 -0.191342 -0.500844
v -0.000000 -0.191342 -0.542110
v -0.207456 -0.191342 -0.500844
v -0.383330 -0.191342 -0.383329
v -0.500844 -0.191342 -0.207456
v -0.542110 -0.191342 0.000000
v -0.500844 -0.191342 0.207457
v -0.383329 -0.191342 0.383329
v -0.207456 -0.191342 0.500844
v 0.000000 -0.191342 0.542110
v 0.207457 -0.191342 0.500844
v 0.383330 -0.191342 0.383329
v 0.500844 -0.191342 0.207456
v 0.898673 -1.208092 0.000000
v 0.830265 -1.208092 -0.343907
v 0.635457 -1.208092 -0.635457
v 0.343907 -1.208092 -0.830265
v -0.000000 -1.208092 -0.898672
v -0.343907 -1.208092 -0.830265
v -0.635458 -1.208092 -0.635457
v -0.830265 -1.208092 -0.343907
v -0.898672 -1.208092 0.000000
v -0.830265 -1.208092 0.280339
v -0.635457 -1.208092 0.517999
v -0.343907 -1.208092 0.676798
v 0.000000 -1.208092 0.732561
v 0.343907 -1.208092 0.676798
v 0.635458 -1.208092 0.517999
v 0.830265 -1.208092 0.280339
v 0.796637 -1.683167 0.000000
v 0.735996 -1.683167 -0.304860
v 0.563307 -1.683167 -0.563307
v 0.304860 -1.683167 -0.735996
v -0.000000 -1.683167 -0.796637
v -0.304860 -1.683167 -0.735996
v -0.563307 -1.683167 -0.563307
v -0.735996 -1.683167 -0.304859
v -0.796637 -1.683167 0.000000
v -0.735996 -1.683167 0.263921
v -0.563307 -1.683167 0.487662
v -0.304859 -1.683167 0.637161
v 0.000000 -1.683167 0.689658
v 0.304860 -1.683167 0.637161
v 0.563307 -1.683167 0.487662
v 0.735996 -1.683167 0.263921
v 0.694882 -1.785877 -0.004293
v 0.641987 -1.785877 -0.270213
v 0.491356 -1.785877 -0.495649
v 0.265920 -1.785877 -0.646281
v -0.000000 -1.785877 -0.699176
v -0.265920 -1.785877 -0.646281
v -0.491356 -1.785877 -0.495649
v -0.641987 -1.785877 -0.270213
v -0.694882 -1.785877 -0.004293
v -0.641987 -1.785877 0.225917
v -0.491356 -1.785877 0.421080
v -0.265920 -1.785877 0.551483
v 0.000000 -1.785877 0.597275
v 0.265920 -1.785877 0.551483
v 0.491356 -1.785877 0.421079
v 0.641987 -1.785877 0.225917
v 0.153162 -1.785877 -0.027151
v 0.141503 -1.785877 -0.085763
v 0.108302 -1.785877 -0.135453
v 0.058613 -1.785877 -0.168654
v 0.000000 -1.785877 -0.180313
v -0.058612 -1.785877 -0.168654
v -0.108302 -1.785877 -0.135453
v -0.141503 -1.785877 -0.085763
v -0.153162 -1.785877 -0.027151
v -0.141503 -1.785877 0.023591
v -0.108302 -1.785877 0.066607
v -0.058612 -1.785877 0.095350
v 0.000000 -1.785877 0.105443
v 0.058613 -1.785877 0.095350
v 0.108302 -1.785877 0.066607
v 0.141503 -1.785877 0.023591
v -0.646490 -1.101049 0.278132
v -0.580805 -1.155303 0.095969
v -0.584026 -1.151948 0.098522
v -0.622214 -1.116576 0.169263
v -0.537761 -1.211162 0.163054
v 0.858212 -0.941057 0.002201
v 0.792884 -0.941057 -0.326223
v 0.606847 -0.941057 -0.604646
v 0.328423 -0.941057 -0.790684
v -0.000000 -0.941057 -0.856011
v -0.328424 -0.941057 -0.790683
v -0.606848 -0.941057 -0.604646
v -0.792884 -0.941057 -0.326222
v -0.858212 -0.941057 0.002201
v -0.792884 -0.941057 0.279632
v -0.606847 -0.941057 0.514827
v -0.328423 -0.941057 0.671979
v 0.000000 -0.941057 0.727163
v 0.328424 -0.941057 0.671979
v 0.606848 -0.941057 0.514827
v 0.792884 -0.941057 0.279632
vn 0.873226 0.246803 0.420148
vn 0.901364 -0.032777 0.431776
vn 0.963652 0.266182 0.021882
vn 0.999359 -0.029115 0.019349
vn 0.597308 0.756828 0.265328
vn 0.629719 0.776788 0.005402
vn 0.650472 0.206488 0.730918
vn 0.659444 -0.035157 0.750908
vn 0.466353 0.736747 0.489578
vn 0.350871 0.162450 0.922208
vn 0.348155 -0.035615 0.936735
vn 0.255196 0.729911 0.634053
vn 0.000000 0.142094 0.989837
vn 0.000000 -0.035493 0.999359
vn 0.000000 0.731590 0.681722
vn -0.350871 0.162450 0.922208
vn -0.348155 -0.035615 0.936735
vn -0.255196 0.729911 0.634053
vn -0.650472 0.206488 0.730918
vn -0.659444 -0.035157 0.750908
vn -0.466353 0.736747 0.489578
vn -0.873226 0.246803 0.420148
vn -0.901364 -0.032777 0.431776
vn -0.597308 0.756828 0.265328
vn -0.963652 0.266182 0.021882
vn -0.999359 -0.030152 0.018128
vn -0.629719 0.776788 0.005402
vn -0.890805 0.269967 -0.365429
vn -0.922452 -0.028565 -0.384960
vn -0.570788 0.786065 -0.237220
vn -0.682852 0.270882 -0.678426
vn -0.705008 -0.027284 -0.708640
vn -0.436781 0.785791 -0.437849
vn -0.371014 0.271493 -0.888028
vn -0.380291 -0.026429 -0.924467
vn -0.236091 0.785607 -0.571886
vn 0.000000 0.271737 -0.962340
vn 0.001129 -0.027192 -0.999603
vn 0.000000 0.786676 -0.617328
vn 0.369701 0.272286 -0.888333
vn 0.382397 -0.026429 -0.923612
vn 0.236091 0.785607 -0.571886
vn 0.682852 0.270882 -0.678426
vn 0.706595 -0.027223 -0.707053
vn 0.436781 0.785791 -0.437849
vn 0.890805 0.269967 -0.365429
vn 0.922880 -0.029633 -0.383892
vn 0.570788 0.786065 -0.237220
vn 0.000000 -1.000000 0.000000
vn 0.000001 -1.000000 0.000000
vn 0.000002 -1.000000 0.000001
vn -0.000000 -1.000000 -0.000001
vn -0.000001 -1.000000 -0.000002
vn 0.889767 -0.456069 0.016816
vn 0.806574 -0.441877 0.392590
vn 0.443556 -0.896207 0.006012
vn 0.399457 -0.896634 0.190893
vn 0.592883 -0.414411 0.690420
vn 0.293161 -0.894070 0.338572
vn 0.310190 -0.394360 0.864986
vn 0.152776 -0.891354 0.426771
vn 0.000000 -0.389782 0.920896
vn 0.000000 -0.892026 0.451918
vn -0.310190 -0.394360 0.864986
vn -0.152776 -0.891354 0.426771
vn -0.592883 -0.414411 0.690420
vn -0.293161 -0.894070 0.338572
vn -0.806574 -0.441877 0.392590
vn -0.399457 -0.896634 0.190893
vn -0.889157 -0.457167 0.017823
vn -0.443556 -0.896207 0.006012
vn -0.821528 -0.459181 -0.337901
vn -0.407239 -0.897305 -0.170110
vn -0.630634 -0.456404 -0.627644
vn -0.313730 -0.895566 -0.315409
vn -0.342662 -0.454512 -0.822169
vn -0.170263 -0.894375 -0.413556
vn -0.000977 -0.455123 -0.890408
vn 0.000000 -0.895688 -0.444655
vn 0.340831 -0.454512 -0.822932
vn 0.170263 -0.894375 -0.413556
vn 0.630360 -0.455245 -0.628773
vn 0.313730 -0.895566 -0.315409
vn 0.820612 -0.460372 -0.338572
vn 0.407239 -0.897305 -0.170110
vn 0.000000 1.000000 0.000000
vn 0.771813 0.550005 0.318979
vn 0.835139 0.550005 -0.000671
vn 1.000000 0.000000 0.000000
vn 0.923856 0.000000 0.382672
vn 0.926542 0.376110 0.000153
vn 0.855953 0.376110 0.354717
vn 0.831446 0.555559 0.004059
vn 0.766594 0.555559 0.321940
vn 0.655049 0.376110 0.655293
vn 0.585040 0.555559 0.590808
vn 0.707083 0.000000 0.707083
vn 0.591021 0.550005 0.590045
vn 0.320200 0.550005 0.771325
vn 0.382672 0.000000 0.923856
vn 0.354411 0.376110 0.856075
vn 0.314402 0.555559 0.769707
vn -0.000153 0.376110 0.926542
vn -0.004059 0.555559 0.831446
vn 0.000000 0.000000 1.000000
vn 0.000671 0.550005 0.835139
vn -0.320078 0.547990 0.772790
vn -0.381634 0.001099 0.924284
vn -0.355449 0.377209 0.855159
vn -0.318186 0.555559 0.768151
vn -0.656301 0.374981 0.654683
vn -0.587909 0.555559 0.587909
vn -0.706320 -0.001099 0.707877
vn -0.589587 0.552019 0.589587
vn -0.771325 0.550005 0.320200
vn -0.923856 0.000000 0.382672
vn -0.856075 0.376110 0.354411
vn -0.769707 0.555559 0.314402
vn -0.926542 0.376110 -0.000153
vn -0.831446 0.555559 -0.000153
vn -1.000000 0.000000 0.000000
vn -0.835139 0.550005 0.000671
vn -0.771813 0.550005 -0.318979
vn -0.923856 0.000000 -0.382672
vn -0.855983 0.375042 -0.355754
vn -0.766594 0.555559 -0.321940
vn -0.655049 0.376110 -0.655293
vn -0.585040 0.555559 -0.590808
vn -0.707083 0.000000 -0.707083
vn -0.591021 0.550005 -0.590045
vn -0.320200 0.550005 -0.771325
vn -0.382672 0.000000 -0.923856
vn -0.354411 0.376110 -0.856075
vn -0.318033 0.555559 -0.768212
vn 0.001099 0.375042 -0.927000
vn 0.004059 0.555559 -0.831446
vn 0.000000 0.000000 -1.000000
vn -0.000671 0.550005 -0.835139
vn 0.318979 0.550005 -0.771813
vn 0.382672 0.000000 -0.923856
vn 0.354717 0.376110 -0.855953
vn 0.321940 0.555559 -0.766594
vn 0.655293 0.376110 -0.655049
vn 0.590808 0.555559 -0.585040
vn 0.707083 0.000000 -0.707083
vn 0.590045 0.550005 -0.591021
vn 0.771325 0.550005 -0.320200
vn 0.923856 0.000000 -0.382672
vn 0.856075 0.376110 -0.354411
vn 0.769707 0.555559 -0.314402
usemtl (null)
s 1
f 165//1 96//2 150//3
f 96//2 81//4 150//3
f 80//5 165//1 65//6
f 165//1 150//3 65//6
f 164//7 95//8 165//1
f 95//8 96//2 165//1
f 79//9 164//7 80//5
f 164//7 165//1 80//5
f 163//10 94//11 164//7
f 94//11 95//8 164//7
f 78//12 163//10 79//9
f 163//10 164//7 79//9
f 162//13 93//14 163//10
f 93//14 94//11 163//10
f 77//15 162//13 78//12
f 162//13 163//10 78//12
f 161//16 92//17 93//14
f 161//16 93//14 162//13
f 76//18 161//16 162//13
f 76//18 162//13 77//15
f 160//19 91//20 92//17
f 160//19 92//17 161//16
f 75//21 160//19 161//16
f 75//21 161//16 76//18
f 159//22 90//23 91//20
f 159//22 91//20 160//19
f 74//24 159//22 160//19
f 74//24 160//19 75//21
f 158//25 89//26 90//23
f 158//25 90//23 159//22
f 73//27 158//25 159//22
f 73//27 159//22 74//24
f 157//28 88//29 89//26
f 157//28 89//26 158//25
f 72//30 157//28 73//27
f 157//28 158//25 73//27
f 156//31 87//32 88//29
f 156//31 88//29 157//28
f 71//33 156//31 72//30
f 156//31 157//28 72//30
f 155//34 86//35 87//32
f 155//34 87//32 156//31
f 70//36 155//34 71//33
f 155//34 156//31 71//33
f 154//37 85//38 86//35
f 154//37 86//35 155//34
f 69//39 154//37 70//36
f 154//37 155//34 70//36
f 153//40 84//41 154//37
f 84//41 85//38 154//37
f 68//42 153//40 154//37
f 68//42 154//37 69//39
f 152//43 83//44 153//40
f 83//44 84//41 153//40
f 67//45 152//43 153//40
f 67//45 153//40 68//42
f 151//46 82//47 152//43
f 82//47 83//44 152//43
f 66//48 151//46 152//43
f 66//48 152//43 67//45
f 150//3 81//4 151//46
f 81//4 82//47 151//46
f 65//6 150//3 151//46
f 65//6 151//46 66//48
s off
f 113//49 128//49 129//49
f 128//49 144//49 129//49
f 128//49 127//49 144//49
f 127//49 143//49 144//49
f 127//49 126//49 143//49
f 126//49 142//49 143//49
f 126//49 125//49 142//49
f 125//49 141//49 142//49
f 125//49 124//49 140//49
f 125//49 140//49 141//49
f 124//49 123//49 139//49
f 124//49 139//49 140//49
f 123//49 122//49 138//49
f 123//49 138//49 139//49
f 122//49 121//49 137//49
f 122//49 137//49 138//49
f 121//49 120//49 137//49
f 120//49 136//49 137//49
f 120//49 119//49 136//49
f 119//49 135//49 136//49
f 119//49 118//49 135//49
f 118//49 134//49 135//49
f 118//49 117//49 134//49
f 117//49 133//49 134//49
f 117//49 116//49 132//49
f 117//49 132//49 133//49
f 116//50 115//50 131//50
f 116//51 131//51 132//51
f 115//52 114//52 130//52
f 115//53 130//53 131//53
f 114//49 113//49 129//49
f 114//49 129//49 130//49
s 1
f 97//54 112//55 113//56
f 112//55 128//57 113//56
f 112//55 111//58 128//57
f 111//58 127//59 128//57
f 111//58 110//60 127//59
f 110//60 126//61 127//59
f 110//60 109//62 126//61
f 109//62 125//63 126//61
f 109//62 108//64 124//65
f 109//62 124//65 125//63
f 108//64 107//66 123//67
f 108//64 123//67 124//65
f 107//66 106//68 122//69
f 107//66 122//69 123//67
f 106//68 105//70 121//71
f 106//68 121//71 122//69
f 105//70 104//72 121//71
f 104//72 120//73 121//71
f 104//72 103//74 120//73
f 103//74 119//75 120//73
f 103//74 102//76 119//75
f 102//76 118//77 119//75
f 102//76 101//78 118//77
f 101//78 117//79 118//77
f 101//78 100//80 116//81
f 101//78 116//81 117//79
f 100//80 99//82 115//83
f 100//80 115//83 116//81
f 99//82 98//84 114//85
f 99//82 114//85 115//83
f 98//84 97//54 113//56
f 98//84 113//56 114//85
f 81//4 96//2 97//54
f 96//2 112//55 97//54
f 96//2 95//8 112//55
f 95//8 111//58 112//55
f 95//8 94//11 111//58
f 94//11 110//60 111//58
f 94//11 93//14 110//60
f 93//14 109//62 110//60
f 93//14 92//17 108//64
f 93//14 108//64 109//62
f 92//17 91//20 107//66
f 92//17 107//66 108//64
f 91//20 90//23 106//68
f 91//20 106//68 107//66
f 90//23 89//26 105//70
f 90//23 105//70 106//68
f 89//26 88//29 104//72
f 89//26 104//72 105//70
f 88//29 87//32 103//74
f 88//29 103//74 104//72
f 87//32 86//35 102//76
f 87//32 102//76 103//74
f 86//35 85//38 101//78
f 86//35 101//78 102//76
f 85//38 84//41 100//80
f 85//38 100//80 101//78
f 84//41 83//44 99//82
f 84//41 99//82 100//80
f 83//44 82//47 99//82
f 82//47 98//84 99//82
f 82//47 81//4 97//54
f 82//47 97//54 98//84
s off
f 4//86 61//86 80//86
f 4//86 80//86 65//86
f 61//86 60//86 79//86
f 61//86 79//86 80//86
f 60//86 53//86 78//86
f 60//86 78//86 79//86
f 53//86 52//86 77//86
f 53//86 77//86 78//86
f 52//86 45//86 76//86
f 52//86 76//86 77//86
f 45//86 44//86 75//86
f 45//86 75//86 76//86
f 44//86 37//86 74//86
f 44//86 74//86 75//86
f 37//86 36//86 73//86
f 37//86 73//86 74//86
f 36//86 29//86 72//86
f 36//86 72//86 73//86
f 29//86 28//86 71//86
f 29//86 71//86 72//86
f 28//86 21//86 70//86
f 28//86 70//86 71//86
f 21//86 20//86 69//86
f 21//86 69//86 70//86
f 20//86 13//86 68//86
f 20//86 68//86 69//86
f 13//86 12//86 67//86
f 13//86 67//86 68//86
f 12//86 5//86 66//86
f 12//86 66//86 67//86
f 5//86 4//86 65//86
f 5//86 65//86 66//86
s 1
f 61//87 4//88 3//89
f 61//87 3//89 62//90
f 62//90 3//89 2//91
f 62//90 2//91 63//92
f 1//93 64//94 63//92
f 1//93 63//92 2//91
f 58//95 63//92 64//94
f 58//95 64//94 57//96
f 59//97 62//90 63//92
f 59//97 63//92 58//95
f 60//98 61//87 62//90
f 60//98 62//90 59//97
f 53//99 60//98 59//97
f 53//99 59//97 54//100
f 54//100 59//97 58//95
f 54//100 58//95 55//101
f 55//101 58//95 57//96
f 55//101 57//96 56//102
f 50//103 55//101 56//102
f 50//103 56//102 49//104
f 51//105 54//100 55//101
f 51//105 55//101 50//103
f 52//106 53//99 54//100
f 52//106 54//100 51//105
f 45//107 52//106 51//105
f 45//107 51//105 46//108
f 46//108 51//105 50//103
f 46//108 50//103 47//109
f 47//109 50//103 49//104
f 47//109 49//104 48//110
f 42//111 47//109 41//112
f 47//109 48//110 41//112
f 43//113 46//108 47//109
f 43//113 47//109 42//111
f 44//114 45//107 43//113
f 45//107 46//108 43//113
f 37//115 44//114 43//113
f 37//115 43//113 38//116
f 38//116 43//113 42//111
f 38//116 42//111 39//117
f 39//117 42//111 41//112
f 39//117 41//112 40//118
f 34//119 39//117 40//118
f 34//119 40//118 33//120
f 35//121 38//116 39//117
f 35//121 39//117 34//119
f 36//122 37//115 38//116
f 36//122 38//116 35//121
f 29//123 36//122 35//121
f 29//123 35//121 30//124
f 30//124 35//121 34//119
f 30//124 34//119 31//125
f 31//125 34//119 33//120
f 31//125 33//120 32//126
f 26//127 31//125 32//126
f 26//127 32//126 25//128
f 27//129 30//124 31//125
f 27//129 31//125 26//127
f 28//130 29//123 30//124
f 28//130 30//124 27//129
f 21//131 28//130 27//129
f 21//131 27//129 22//132
f 22//132 27//129 26//127
f 22//132 26//127 23//133
f 23//133 26//127 25//128
f 23//133 25//128 24//134
f 18//135 23//133 24//134
f 18//135 24//134 17//136
f 19//137 22//132 23//133
f 19//137 23//133 18//135
f 20//138 21//131 22//132
f 20//138 22//132 19//137
f 13//139 20//138 19//137
f 13//139 19//137 14//140
f 14//140 19//137 18//135
f 14//140 18//135 15//141
f 15//141 18//135 17//136
f 15//141 17//136 16//142
f 10//143 15//141 16//142
f 10//143 16//142 9//144
f 11//145 14//140 15//141
f 11//145 15//141 10//143
f 12//146 13//139 14//140
f 12//146 14//140 11//145
f 5//147 12//146 11//145
f 5//147 11//145 6//148
f 6//148 11//145 10//143
f 6//148 10//143 7//149
f 7//149 10//143 9//144
f 7//149 9//144 8//150
f 8//150 1//93 2//91
f 8//150 2//91 7//149
f 3//89 6//148 7//149
f 3//89 7//149 2//91
f 4//88 5//147 6//148
f 4//88 6//148 3//89
