# Blender3D v249 OBJ File: shin.blend
# www.blender3d.org
v 0.073860 0.169225 0.000000
v 0.136475 0.127386 0.000000
v 0.178314 0.064771 0.000000
v 0.193005 -0.009089 -0.000000
v 0.178314 -0.082949 -0.000000
v 0.218293 -0.102418 -0.000000
v 0.154357 -0.102418 -0.154357
v 0.126087 -0.082949 -0.126087
v 0.136475 -0.009089 -0.136475
v 0.126087 0.064771 -0.126087
v 0.096503 0.127386 -0.096503
v 0.052227 0.169225 -0.052227
v -0.000000 0.169225 -0.073860
v -0.000000 0.127386 -0.136475
v -0.000000 0.064771 -0.178314
v -0.000000 -0.009089 -0.193005
v -0.000000 -0.082949 -0.178314
v -0.000000 -0.102418 -0.218293
v -0.154357 -0.102418 -0.154357
v -0.126087 -0.082949 -0.126087
v -0.136475 -0.009089 -0.136475
v -0.126087 0.064771 -0.126087
v -0.096503 0.127386 -0.096503
v -0.052227 0.169225 -0.052227
v 0.000000 0.183916 0.000000
v -0.073860 0.169225 0.000000
v -0.136475 0.127386 0.000000
v -0.178314 0.064771 0.000000
v -0.193005 -0.009089 0.000000
v -0.178314 -0.082949 0.000000
v -0.218293 -0.102418 -0.000000
v -0.154357 -0.102418 0.154357
v -0.126087 -0.082949 0.126087
v -0.136475 -0.009089 0.136475
v -0.126087 0.064771 0.126087
v -0.096503 0.127386 0.096503
v -0.052227 0.169225 0.052227
v 0.000000 0.169225 0.073860
v 0.000000 0.127386 0.136475
v 0.000000 0.064771 0.178314
v 0.000000 -0.009089 0.193005
v 0.000000 -0.082949 0.178314
v 0.000000 -0.102418 0.218293
v 0.154357 -0.102418 0.154357
v 0.126087 -0.082949 0.126087
v 0.136475 -0.009089 0.136475
v 0.126087 0.064771 0.126087
v 0.096503 0.127386 0.096503
v 0.052227 0.169225 0.052227
v 0.175358 -2.686878 -0.000000
v 0.123997 -2.686878 -0.123997
v -0.000000 -2.686878 -0.175358
v -0.123997 -2.686878 -0.123997
v -0.175358 -2.686878 -0.000000
v -0.123997 -2.686878 0.123997
v 0.000000 -2.686878 0.175358
v 0.123997 -2.686878 0.123997
v 0.240205 -0.717360 -0.000000
v 0.169851 -0.717360 -0.169851
v -0.000000 -0.717360 -0.240205
v -0.169851 -0.717360 -0.169851
v -0.240205 -0.717360 -0.000000
v -0.169851 -0.717360 0.169851
v 0.000000 -0.717360 0.240205
v 0.169851 -0.717360 0.169851
v 0.122410 -2.708451 -0.000000
v 0.086557 -2.708451 -0.086557
v -0.000000 -2.708451 -0.122410
v -0.086557 -2.708451 -0.086557
v -0.122410 -2.708451 -0.000000
v -0.086557 -2.708451 0.086557
v 0.000000 -2.708451 0.122410
v 0.086557 -2.708451 0.086557
vn 0.418348 0.908261 0.001373
vn 0.296793 0.908261 -0.294839
vn 0.000000 1.000000 0.000000
vn 0.000031 0.908658 -0.417524
vn -0.294839 0.908261 -0.296793
vn -0.418348 0.908261 -0.001373
vn -0.296793 0.908261 0.294839
vn -0.001373 0.908261 0.418348
vn 0.295175 0.908658 0.295267
vn 0.372795 -0.914975 0.154417
vn 0.154417 -0.914975 0.372795
vn -0.154417 -0.914975 0.372795
vn -0.372795 -0.914975 0.154417
vn -0.372795 -0.914975 -0.154417
vn -0.154417 -0.914975 -0.372795
vn 0.154417 -0.914975 -0.372795
vn 0.372795 -0.914975 -0.154417
vn 0.705618 0.001160 0.708579
vn 0.606220 -0.513901 0.606922
vn 0.858577 -0.512650 0.001740
vn 0.999969 0.001160 -0.002014
vn 0.614673 0.495407 0.613758
vn 0.869320 0.494217 -0.001831
vn -0.002106 0.001526 0.999969
vn -0.000488 -0.511399 0.859310
vn 0.001831 0.494217 0.869320
vn -0.707083 0.001343 0.707083
vn -0.608325 -0.512650 0.605853
vn -0.613392 0.494217 0.615986
vn -0.999969 0.001343 0.000000
vn -0.858577 -0.512650 -0.001740
vn -0.869320 0.494217 0.001831
vn -0.705618 0.001160 -0.708579
vn -0.606220 -0.513901 -0.606922
vn -0.615986 0.494217 -0.613392
vn 0.002106 0.001526 -0.999969
vn 0.000488 -0.511399 -0.859310
vn -0.001831 0.494217 -0.869320
vn 0.707083 0.001343 -0.707083
vn 0.608325 -0.512650 -0.605853
vn 0.613392 0.494217 -0.615986
vn 0.430795 0.884632 0.178441
vn 0.430796 0.884632 0.178442
vn 0.652486 0.386853 0.651601
vn 0.922117 0.386853 -0.000610
vn 1.000000 0.000000 0.000000
vn 0.707083 0.000000 0.707083
vn 0.926817 0.375439 0.000214
vn 0.655202 0.375439 0.655507
vn 0.720359 0.693594 0.000488
vn 0.509690 0.694143 0.508255
vn -0.001526 0.692892 0.721030
vn -0.001556 0.374706 0.927122
vn 0.000000 0.000000 1.000000
vn 0.000610 0.386853 0.922117
vn 0.178442 0.884632 0.430796
vn -0.178441 0.884632 0.430796
vn -0.178442 0.884632 0.430797
vn -0.651601 0.386853 0.652486
vn -0.706015 0.000702 0.708182
vn -0.655507 0.375439 0.655202
vn -0.509690 0.693594 0.509018
vn -0.720359 0.693594 -0.000488
vn -0.926817 0.375439 -0.000214
vn -1.000000 0.000000 0.000000
vn -0.921506 0.388287 -0.000488
vn -0.430796 0.884632 0.178442
vn -0.430796 0.884632 -0.178441
vn -0.652486 0.386853 -0.651601
vn -0.707083 0.000000 -0.707083
vn -0.655202 0.375439 -0.655507
vn -0.509018 0.693594 -0.509690
vn 0.000488 0.693594 -0.720359
vn 0.000214 0.375439 -0.926817
vn 0.000000 0.000000 -1.000000
vn -0.000610 0.386853 -0.922117
vn -0.178441 0.884632 -0.430796
vn -0.178442 0.884632 -0.430796
vn 0.178441 0.884632 -0.430796
vn 0.651601 0.386853 -0.652486
vn 0.707083 0.000000 -0.707083
vn 0.655507 0.375439 -0.655202
vn 0.510910 0.692892 -0.508744
vn 0.430796 0.884632 -0.178441
vn 0.430795 0.884632 -0.178441
usemtl (null)
s 1
f 1//1 12//2 25//3
f 12//2 13//4 25//3
f 13//4 24//5 25//3
f 24//5 26//6 25//3
f 26//6 37//7 25//3
f 37//7 38//8 25//3
f 38//8 49//9 25//3
f 49//9 1//1 25//3
s off
f 50//10 57//10 73//10
f 50//10 73//10 66//10
f 57//11 56//11 72//11
f 57//11 72//11 73//11
f 56//12 55//12 71//12
f 56//12 71//12 72//12
f 55//13 54//13 70//13
f 55//13 70//13 71//13
f 54//14 53//14 69//14
f 54//14 69//14 70//14
f 53//15 52//15 68//15
f 53//15 68//15 69//15
f 52//16 51//16 67//16
f 52//16 67//16 68//16
f 51//17 50//17 66//17
f 51//17 66//17 67//17
s 1
f 65//18 57//19 50//20
f 65//18 50//20 58//21
f 44//22 65//18 58//21
f 44//22 58//21 6//23
f 64//24 56//25 65//18
f 56//25 57//19 65//18
f 43//26 64//24 65//18
f 43//26 65//18 44//22
f 63//27 55//28 56//25
f 63//27 56//25 64//24
f 32//29 63//27 64//24
f 32//29 64//24 43//26
f 62//30 54//31 55//28
f 62//30 55//28 63//27
f 31//32 62//30 63//27
f 31//32 63//27 32//29
f 61//33 53//34 54//31
f 61//33 54//31 62//30
f 19//35 61//33 62//30
f 19//35 62//30 31//32
f 60//36 52//37 61//33
f 52//37 53//34 61//33
f 18//38 60//36 61//33
f 18//38 61//33 19//35
f 59//39 51//40 52//37
f 59//39 52//37 60//36
f 7//41 59//39 60//36
f 7//41 60//36 18//38
f 58//21 50//20 51//40
f 58//21 51//40 59//39
f 6//23 58//21 59//39
f 6//23 59//39 7//41
s off
f 44//42 6//42 5//42
f 44//43 5//43 45//43
s 1
f 45//44 5//45 4//46
f 45//44 4//46 46//47
f 46//47 4//46 3//48
f 46//47 3//48 47//49
f 47//49 3//48 2//50
f 47//49 2//50 48//51
f 1//1 49//9 48//51
f 1//1 48//51 2//50
f 39//52 48//51 49//9
f 39//52 49//9 38//8
f 40//53 47//49 48//51
f 40//53 48//51 39//52
f 41//54 46//47 47//49
f 41//54 47//49 40//53
f 42//55 45//44 46//47
f 42//55 46//47 41//54
s off
f 43//56 44//56 45//56
f 43//56 45//56 42//56
f 32//57 43//57 42//57
f 32//58 42//58 33//58
s 1
f 33//59 42//55 41//54
f 33//59 41//54 34//60
f 34//60 41//54 40//53
f 34//60 40//53 35//61
f 35//61 40//53 39//52
f 35//61 39//52 36//62
f 36//62 39//52 38//8
f 36//62 38//8 37//7
f 27//63 36//62 37//7
f 27//63 37//7 26//6
f 28//64 35//61 36//62
f 28//64 36//62 27//63
f 29//65 34//60 35//61
f 29//65 35//61 28//64
f 30//66 33//59 34//60
f 30//66 34//60 29//65
s off
f 31//67 32//67 33//67
f 31//67 33//67 30//67
f 19//68 31//68 30//68
f 19//68 30//68 20//68
s 1
f 20//69 30//66 29//65
f 20//69 29//65 21//70
f 21//70 29//65 28//64
f 21//70 28//64 22//71
f 22//71 28//64 27//63
f 22//71 27//63 23//72
f 23//72 27//63 26//6
f 23//72 26//6 24//5
f 14//73 23//72 24//5
f 14//73 24//5 13//4
f 15//74 22//71 23//72
f 15//74 23//72 14//73
f 16//75 21//70 22//71
f 16//75 22//71 15//74
f 17//76 20//69 21//70
f 17//76 21//70 16//75
s off
f 18//77 19//77 20//77
f 18//78 20//78 17//78
f 7//79 18//79 17//79
f 7//79 17//79 8//79
s 1
f 8//80 17//76 16//75
f 8//80 16//75 9//81
f 9//81 16//75 15//74
f 9//81 15//74 10//82
f 10//82 15//74 14//73
f 10//82 14//73 11//83
f 11//83 14//73 13//4
f 11//83 13//4 12//2
f 12//2 1//1 2//50
f 12//2 2//50 11//83
f 3//48 10//82 11//83
f 3//48 11//83 2//50
f 4//46 9//81 10//82
f 4//46 10//82 3//48
f 5//45 8//80 9//81
f 5//45 9//81 4//46
s off
f 6//84 7//84 8//84
f 6//85 8//85 5//85
