# Blender3D v249 OBJ File: thigh.blend
# www.blender3d.org
v 0.137356 0.322379 0.000000
v 0.250561 0.246738 0.000000
v 0.326202 0.133534 0.000000
v 0.352763 -0.000000 -0.000000
v 0.326202 -0.133534 -0.000000
v 0.231779 -0.133534 -0.227957
v 0.250561 0.000000 -0.246738
v 0.231779 0.133534 -0.227956
v 0.178293 0.246738 -0.174470
v 0.098245 0.322379 -0.094423
v 0.003822 0.322379 -0.133534
v 0.003822 0.246738 -0.246738
v 0.003822 0.133534 -0.322379
v 0.003822 0.000000 -0.348941
v 0.003822 -0.133534 -0.322379
v -0.224134 -0.133534 -0.227956
v -0.242916 0.000000 -0.246738
v -0.224134 0.133534 -0.227956
v -0.170648 0.246738 -0.174470
v -0.090600 0.322379 -0.094423
v 0.003822 0.348941 0.000000
v -0.129711 0.322379 0.000000
v -0.242916 0.246738 0.000000
v -0.318557 0.133534 0.000000
v -0.345118 -0.000000 0.000000
v -0.318557 -0.133534 0.000000
v -0.224134 -0.133534 0.227957
v -0.242916 -0.000000 0.246738
v -0.224134 0.133534 0.227957
v -0.170648 0.246738 0.174470
v -0.090600 0.322379 0.094423
v 0.003822 0.322379 0.133534
v 0.003822 0.246738 0.246738
v 0.003822 0.133534 0.322379
v 0.003822 -0.000000 0.348941
v 0.003822 -0.133534 0.322379
v 0.231779 -0.133534 0.227956
v 0.250561 -0.000000 0.246738
v 0.231779 0.133534 0.227956
v 0.178293 0.246738 0.174470
v 0.098245 0.322379 0.094423
v 0.361116 -0.153604 -0.000000
v 0.256467 -0.153604 -0.252645
v 0.003822 -0.153604 -0.357294
v -0.248823 -0.153604 -0.252645
v -0.353472 -0.153604 0.000000
v -0.248823 -0.153604 0.252645
v 0.003822 -0.153604 0.357294
v 0.256468 -0.153604 0.252645
v 0.390314 -0.908663 -0.000000
v 0.277113 -0.908663 -0.273291
v 0.003822 -0.908663 -0.386491
v -0.269468 -0.908663 -0.273291
v -0.382669 -0.908663 0.000000
v -0.269468 -0.908663 0.273291
v 0.003822 -0.908663 0.386491
v 0.277113 -0.908663 0.273291
v 0.177647 -2.497429 -0.173824
v 0.249647 -2.497429 -0.000000
v 0.003822 -2.497429 -0.245825
v -0.170002 -2.497429 -0.173824
v -0.242002 -2.497429 0.000000
v -0.170002 -2.497429 0.173824
v 0.003822 -2.497429 0.245825
v 0.177647 -2.497429 0.173824
v 0.116267 -2.508404 -0.112444
v 0.162843 -2.508404 -0.000000
v 0.003822 -2.508404 -0.159020
v -0.108622 -2.508404 -0.112444
v -0.155198 -2.508404 0.000000
v -0.108622 -2.508404 0.112444
v 0.003822 -2.508404 0.159020
v 0.116267 -2.508404 0.112444
vn 0.418348 0.908261 0.001373
vn 0.296793 0.908261 -0.294839
vn 0.000000 1.000000 0.000000
vn 0.001373 0.908261 -0.418348
vn -0.294839 0.908261 -0.296793
vn -0.418348 0.908261 -0.001373
vn -0.296793 0.908261 0.294839
vn -0.001373 0.908261 0.418348
vn 0.294839 0.908261 0.296793
vn 0.125259 -0.990767 0.051884
vn 0.051884 -0.990767 0.125259
vn -0.051884 -0.990766 0.125259
vn -0.051884 -0.990767 0.125259
vn -0.125259 -0.990767 0.051884
vn -0.125259 -0.990766 -0.051884
vn -0.125259 -0.990767 -0.051884
vn -0.051884 -0.990766 -0.125259
vn -0.051884 -0.990767 -0.125259
vn 0.051884 -0.990766 -0.125259
vn 0.051884 -0.990767 -0.125259
vn 0.125259 -0.990767 -0.051884
vn 0.999695 -0.024445 -0.001984
vn 0.708274 -0.025056 0.705466
vn 0.799463 -0.600696 0.000153
vn 0.563829 -0.603198 0.564074
vn 0.001984 -0.024445 0.999695
vn -0.000153 -0.600696 0.799463
vn -0.705466 -0.025056 0.708274
vn -0.564074 -0.603198 0.563829
vn -0.999695 -0.024445 0.001984
vn -0.799463 -0.600696 -0.000153
vn -0.708274 -0.025056 -0.705466
vn -0.563829 -0.603198 -0.564074
vn -0.001984 -0.024445 -0.999695
vn 0.000153 -0.600696 -0.799463
vn 0.705466 -0.025056 -0.708274
vn 0.564074 -0.603198 -0.563829
vn 0.880490 0.474013 0.000580
vn 0.622181 0.474013 0.623035
vn -0.000580 0.474013 0.880490
vn -0.623035 0.474013 0.622181
vn -0.880490 0.474013 -0.000580
vn -0.622181 0.474013 -0.623035
vn 0.000580 0.474013 -0.880490
vn 0.623035 0.474013 -0.622181
vn 0.488063 0.849073 0.202162
vn 0.202162 0.849073 0.488063
vn -0.202162 0.849073 0.488063
vn -0.488063 0.849073 0.202162
vn -0.488062 0.849073 0.202162
vn -0.488063 0.849073 -0.202162
vn -0.202162 0.849073 -0.488063
vn -0.202162 0.849073 -0.488062
vn 0.202162 0.849073 -0.488062
vn 0.202162 0.849073 -0.488063
vn 0.488063 0.849073 -0.202162
vn 0.488062 0.849073 -0.202162
vn 0.658803 0.364605 0.658010
vn 0.931150 0.364605 -0.000519
vn 1.000000 0.000000 0.000000
vn 0.708182 0.000702 0.706015
vn 0.926817 0.375439 0.000214
vn 0.654439 0.374706 0.656697
vn 0.719810 0.694143 -0.001007
vn 0.509018 0.693594 0.509690
vn 0.001007 0.694143 0.719810
vn -0.000214 0.375439 0.926817
vn 0.000000 0.000000 1.000000
vn -0.000580 0.366008 0.930570
vn -0.658010 0.364605 0.658803
vn -0.707083 0.000000 0.707083
vn -0.656697 0.374706 0.654439
vn -0.508255 0.694143 0.509690
vn -0.720359 0.693594 -0.000488
vn -0.927122 0.374706 -0.001556
vn -1.000000 0.000000 0.000000
vn -0.931150 0.364605 0.000519
vn -0.658803 0.364605 -0.658010
vn -0.707083 0.000000 -0.707083
vn -0.655202 0.375439 -0.655507
vn -0.509018 0.693594 -0.509690
vn 0.000488 0.693594 -0.720328
vn 0.000214 0.375439 -0.926817
vn 0.000000 0.000000 -1.000000
vn -0.000519 0.364605 -0.931150
vn 0.658010 0.364605 -0.658803
vn 0.707083 0.000000 -0.707083
vn 0.655507 0.375439 -0.655202
vn 0.509690 0.693594 -0.509018
usemtl (null)
s 1
f 1//1 10//2 21//3
f 10//2 11//4 21//3
f 11//4 20//5 21//3
f 20//5 22//6 21//3
f 22//6 31//7 21//3
f 31//7 32//8 21//3
f 32//8 41//9 21//3
f 41//9 1//1 21//3
s off
f 59//10 65//10 73//10
f 59//10 73//10 67//10
f 65//11 64//11 72//11
f 65//11 72//11 73//11
f 64//12 63//12 71//12
f 64//13 71//13 72//13
f 63//14 62//14 70//14
f 63//14 70//14 71//14
f 62//15 61//15 69//15
f 62//16 69//16 70//16
f 61//17 60//17 68//17
f 61//18 68//18 69//18
f 60//19 58//19 66//19
f 60//20 66//20 68//20
f 58//21 59//21 67//21
f 58//21 67//21 66//21
s 1
f 50//22 57//23 59//24
f 57//23 65//25 59//24
f 57//23 56//26 64//27
f 57//23 64//27 65//25
f 56//26 55//28 64//27
f 55//28 63//29 64//27
f 55//28 54//30 62//31
f 55//28 62//31 63//29
f 54//30 53//32 62//31
f 53//32 61//33 62//31
f 53//32 52//34 60//35
f 53//32 60//35 61//33
f 52//34 51//36 60//35
f 51//36 58//37 60//35
f 51//36 50//22 59//24
f 51//36 59//24 58//37
f 42//38 49//39 57//23
f 42//38 57//23 50//22
f 49//39 48//40 56//26
f 49//39 56//26 57//23
f 48//40 47//41 55//28
f 48//40 55//28 56//26
f 47//41 46//42 54//30
f 47//41 54//30 55//28
f 46//42 45//43 53//32
f 46//42 53//32 54//30
f 45//43 44//44 52//34
f 45//43 52//34 53//32
f 44//44 43//45 51//36
f 44//44 51//36 52//34
f 43//45 42//38 50//22
f 43//45 50//22 51//36
s off
f 5//46 37//46 49//46
f 5//46 49//46 42//46
f 37//47 36//47 48//47
f 37//47 48//47 49//47
f 36//48 27//48 47//48
f 36//48 47//48 48//48
f 27//49 26//49 46//49
f 27//50 46//50 47//50
f 26//51 16//51 45//51
f 26//51 45//51 46//51
f 16//52 15//52 44//52
f 16//53 44//53 45//53
f 15//54 6//54 43//54
f 15//55 43//55 44//55
f 6//56 5//56 42//56
f 6//57 42//57 43//57
s 1
f 37//58 5//59 4//60
f 37//58 4//60 38//61
f 38//61 4//60 3//62
f 38//61 3//62 39//63
f 39//63 3//62 2//64
f 39//63 2//64 40//65
f 1//1 41//9 40//65
f 1//1 40//65 2//64
f 33//66 40//65 41//9
f 33//66 41//9 32//8
f 34//67 39//63 40//65
f 34//67 40//65 33//66
f 35//68 38//61 39//63
f 35//68 39//63 34//67
f 36//69 37//58 38//61
f 36//69 38//61 35//68
f 27//70 36//69 35//68
f 27//70 35//68 28//71
f 28//71 35//68 34//67
f 28//71 34//67 29//72
f 29//72 34//67 33//66
f 29//72 33//66 30//73
f 30//73 33//66 32//8
f 30//73 32//8 31//7
f 23//74 30//73 31//7
f 23//74 31//7 22//6
f 24//75 29//72 30//73
f 24//75 30//73 23//74
f 25//76 28//71 29//72
f 25//76 29//72 24//75
f 26//77 27//70 28//71
f 26//77 28//71 25//76
f 16//78 26//77 25//76
f 16//78 25//76 17//79
f 17//79 25//76 24//75
f 17//79 24//75 18//80
f 18//80 24//75 23//74
f 18//80 23//74 19//81
f 19//81 23//74 22//6
f 19//81 22//6 20//5
f 12//82 19//81 20//5
f 12//82 20//5 11//4
f 13//83 18//80 19//81
f 13//83 19//81 12//82
f 14//84 17//79 18//80
f 14//84 18//80 13//83
f 15//85 16//78 17//79
f 15//85 17//79 14//84
f 6//86 15//85 14//84
f 6//86 14//84 7//87
f 7//87 14//84 13//83
f 7//87 13//83 8//88
f 8//88 13//83 12//82
f 8//88 12//82 9//89
f 9//89 12//82 11//4
f 9//89 11//4 10//2
f 10//2 1//1 2//64
f 10//2 2//64 9//89
f 3//62 8//88 9//89
f 3//62 9//89 2//64
f 4//60 7//87 8//88
f 4//60 8//88 3//62
f 5//59 6//86 7//87
f 5//59 7//87 4//60
