# Blender3D v249 OBJ File: uparm.blend
# www.blender3d.org
v 0.130925 0.315330 0.000000
v 0.238380 0.243531 0.000000
v 0.310179 0.136077 0.000000
v 0.335391 0.009325 -0.000000
v 0.310179 -0.117426 -0.000000
v 0.220552 -0.117426 -0.216378
v 0.238380 0.009325 -0.234206
v 0.220552 0.136077 -0.216378
v 0.169782 0.243531 -0.165609
v 0.093800 0.315330 -0.089627
v 0.004174 0.315330 -0.126751
v 0.004174 0.243531 -0.234206
v 0.004174 0.136077 -0.306005
v 0.004174 0.009325 -0.331217
v 0.004174 -0.117426 -0.306005
v -0.212205 -0.117426 -0.216378
v -0.230033 0.009325 -0.234206
v -0.212205 0.136077 -0.216378
v -0.161435 0.243531 -0.165609
v -0.085453 0.315330 -0.089627
v 0.004174 0.340543 0.000000
v -0.122578 0.315330 0.000000
v -0.230033 0.243531 0.000000
v -0.301831 0.136077 0.000000
v -0.327044 0.009325 0.000000
v -0.301831 -0.117426 0.000000
v -0.212205 -0.117426 0.216378
v -0.230033 0.009325 0.234206
v -0.212205 0.136077 0.216378
v -0.161435 0.243531 0.165609
v -0.085453 0.315330 0.089627
v 0.004174 0.315330 0.126751
v 0.004174 0.243531 0.234206
v 0.004174 0.136077 0.306005
v 0.004174 0.009325 0.331217
v 0.004174 -0.117426 0.306005
v 0.220552 -0.117426 0.216378
v 0.238380 0.009325 0.234206
v 0.220552 0.136077 0.216378
v 0.169782 0.243531 0.165609
v 0.093800 0.315330 0.089627
v 0.264173 -0.197567 -0.000000
v 0.187930 -0.197567 -0.184068
v 0.003862 -0.197567 -0.260311
v -0.180205 -0.197567 -0.184068
v -0.256449 -0.197567 0.000000
v -0.180205 -0.197567 0.184068
v 0.003862 -0.197567 0.260311
v 0.187930 -0.197567 0.184067
v 0.299827 -0.762341 -0.000000
v 0.213129 -0.762341 -0.209307
v 0.003822 -0.762341 -0.296005
v -0.205485 -0.762341 -0.209307
v -0.292182 -0.762341 0.000000
v -0.205484 -0.762341 0.209307
v 0.003822 -0.762341 0.296005
v 0.213129 -0.762341 0.209307
v 0.137763 -1.800845 -0.133940
v 0.193242 -1.800845 -0.000000
v 0.003822 -1.800845 -0.189420
v -0.130118 -1.800845 -0.133940
v -0.185598 -1.800845 0.000000
v -0.130118 -1.800845 0.133940
v 0.003822 -1.800845 0.189420
v 0.137763 -1.800845 0.133940
v 0.090466 -1.809301 -0.086644
v 0.126355 -1.809301 -0.000000
v 0.003822 -1.809301 -0.122533
v -0.082821 -1.809301 -0.086644
v -0.118710 -1.809301 0.000000
v -0.082821 -1.809301 0.086644
v 0.003822 -1.809301 0.122533
v 0.090466 -1.809301 0.086644
v 0.235099 -0.228812 -0.000000
v 0.167360 -0.228812 -0.163538
v 0.003822 -0.228812 -0.231277
v -0.159715 -0.228812 -0.163538
v -0.227455 -0.228812 0.000000
v -0.159715 -0.228812 0.163538
v 0.003822 -0.228812 0.231277
v 0.167360 -0.228812 0.163537
vn 0.418348 0.908261 0.001373
vn 0.296793 0.908261 -0.294839
vn 0.000000 1.000000 0.000000
vn 0.001373 0.908261 -0.418348
vn -0.294839 0.908261 -0.296793
vn -0.418348 0.908261 -0.001373
vn -0.296793 0.908261 0.294839
vn -0.001373 0.908261 0.418348
vn 0.295175 0.908658 0.295267
vn 0.677236 -0.288644 0.676748
vn 0.704489 0.009156 0.709616
vn 0.999939 0.009156 0.003601
vn 0.957366 -0.288766 -0.002197
vn 0.700579 -0.651904 0.290189
vn 0.700580 -0.651904 0.290189
vn 0.000336 -0.288430 0.957488
vn -0.003601 0.009156 0.999939
vn 0.290289 -0.651603 0.700818
vn 0.290288 -0.651604 0.700818
vn -0.676840 -0.288247 0.677297
vn -0.709616 0.009156 0.704489
vn -0.290428 -0.651179 0.701155
vn -0.957976 -0.286782 0.001282
vn -0.999939 0.009156 -0.003601
vn -0.701394 -0.650877 0.290527
vn -0.701393 -0.650878 0.290527
vn -0.678671 -0.288247 -0.675497
vn -0.704489 0.009156 -0.709616
vn -0.701394 -0.650877 -0.290527
vn -0.002228 -0.288430 -0.957488
vn 0.003601 0.009156 -0.999939
vn -0.290428 -0.651178 -0.701155
vn 0.675405 -0.288644 -0.678579
vn 0.709616 0.009156 -0.704489
vn 0.290288 -0.651603 -0.700818
vn 0.700580 -0.651904 -0.290190
vn 0.125260 -0.990766 0.051884
vn 0.051884 -0.990766 0.125260
vn -0.051884 -0.990766 0.125260
vn -0.125260 -0.990766 0.051884
vn -0.125260 -0.990766 -0.051884
vn -0.051884 -0.990766 -0.125260
vn 0.051884 -0.990766 -0.125260
vn 0.125260 -0.990766 -0.051884
vn 0.562090 -0.608081 0.560564
vn 0.793847 -0.608081 -0.001038
vn 0.001038 -0.608081 0.793847
vn -0.560564 -0.608081 0.562090
vn -0.793847 -0.608081 0.001038
vn -0.562090 -0.608081 -0.560564
vn -0.001038 -0.608081 -0.793847
vn 0.560564 -0.608081 -0.562090
vn 0.938353 -0.345592 -0.001709
vn 0.665883 -0.345897 0.661000
vn 0.808924 -0.587878 0.000000
vn 0.570513 -0.587878 0.573473
vn 0.003571 -0.344981 0.938597
vn -0.000732 -0.587268 0.809351
vn -0.661458 -0.344066 0.666372
vn -0.573290 -0.586200 0.572436
vn -0.938810 -0.344340 0.001679
vn -0.809778 -0.586688 0.000000
vn -0.663869 -0.344066 -0.663961
vn -0.573290 -0.586200 -0.572436
vn 0.000153 -0.344981 -0.938597
vn -0.000732 -0.587268 -0.809351
vn 0.663472 -0.345897 -0.663411
vn 0.571337 -0.588336 -0.572161
vn 1.000000 0.000000 0.000000
vn 0.707083 0.000000 0.707083
vn 0.926817 0.375439 0.000214
vn 0.655202 0.375439 0.655507
vn 0.720328 0.693594 0.000488
vn 0.509018 0.693594 0.509690
vn 0.000000 0.693442 0.720481
vn -0.000214 0.375439 0.926817
vn 0.000000 0.000000 1.000000
vn -0.707083 0.000000 0.707083
vn -0.656697 0.374706 0.654439
vn -0.509690 0.693594 0.509018
vn -0.720359 0.693594 -0.000488
vn -0.926817 0.375439 -0.000214
vn -1.000000 0.000000 0.000000
vn -0.707083 0.000000 -0.707083
vn -0.655202 0.375439 -0.655507
vn -0.509018 0.693594 -0.509690
vn 0.000488 0.693594 -0.720328
vn 0.000214 0.375439 -0.926817
vn 0.000000 0.000000 -1.000000
vn 0.707083 0.000000 -0.707083
vn 0.655507 0.375439 -0.655202
vn 0.509690 0.693594 -0.509018
usemtl (null)
s 1
f 1//1 10//2 21//3
f 10//2 11//4 21//3
f 11//4 20//5 21//3
f 20//5 22//6 21//3
f 22//6 31//7 21//3
f 31//7 32//8 21//3
f 32//8 41//9 21//3
f 41//9 1//1 21//3
f 81//10 57//11 50//12
f 81//10 50//12 74//13
s off
f 49//14 81//14 74//14
f 49//15 74//15 42//15
s 1
f 80//16 56//17 57//11
f 80//16 57//11 81//10
s off
f 48//18 80//18 81//18
f 48//19 81//19 49//19
s 1
f 79//20 55//21 56//17
f 79//20 56//17 80//16
s off
f 47//22 79//22 80//22
f 47//22 80//22 48//22
s 1
f 78//23 54//24 55//21
f 78//23 55//21 79//20
s off
f 46//25 78//25 79//25
f 46//26 79//26 47//26
s 1
f 77//27 53//28 54//24
f 77//27 54//24 78//23
s off
f 45//29 77//29 46//29
f 77//29 78//29 46//29
s 1
f 76//30 52//31 53//28
f 76//30 53//28 77//27
s off
f 44//32 76//32 45//32
f 76//32 77//32 45//32
s 1
f 75//33 51//34 52//31
f 75//33 52//31 76//30
s off
f 43//35 75//35 44//35
f 75//35 76//35 44//35
s 1
f 74//13 50//12 51//34
f 74//13 51//34 75//33
s off
f 42//36 74//36 43//36
f 74//36 75//36 43//36
f 59//37 65//37 73//37
f 59//37 73//37 67//37
f 65//38 64//38 72//38
f 65//38 72//38 73//38
f 64//39 63//39 71//39
f 64//39 71//39 72//39
f 63//40 62//40 70//40
f 63//40 70//40 71//40
f 62//41 61//41 69//41
f 62//41 69//41 70//41
f 61//42 60//42 68//42
f 61//42 68//42 69//42
f 60//43 58//43 66//43
f 60//43 66//43 68//43
f 58//44 59//44 67//44
f 58//44 67//44 66//44
s 1
f 50//12 57//11 65//45
f 50//12 65//45 59//46
f 57//11 56//17 64//47
f 57//11 64//47 65//45
f 56//17 55//21 63//48
f 56//17 63//48 64//47
f 55//21 54//24 62//49
f 55//21 62//49 63//48
f 54//24 53//28 61//50
f 54//24 61//50 62//49
f 53//28 52//31 60//51
f 53//28 60//51 61//50
f 52//31 51//34 58//52
f 52//31 58//52 60//51
f 51//34 50//12 59//46
f 51//34 59//46 58//52
f 5//53 37//54 42//55
f 37//54 49//56 42//55
f 37//54 36//57 49//56
f 36//57 48//58 49//56
f 36//57 27//59 48//58
f 27//59 47//60 48//58
f 27//59 26//61 47//60
f 26//61 46//62 47//60
f 26//61 16//63 45//64
f 26//61 45//64 46//62
f 16//63 15//65 44//66
f 16//63 44//66 45//64
f 15//65 6//67 43//68
f 15//65 43//68 44//66
f 6//67 5//53 42//55
f 6//67 42//55 43//68
f 37//54 5//53 4//69
f 37//54 4//69 38//70
f 38//70 4//69 3//71
f 38//70 3//71 39//72
f 39//72 3//71 2//73
f 39//72 2//73 40//74
f 1//1 41//9 40//74
f 1//1 40//74 2//73
f 33//75 40//74 41//9
f 33//75 41//9 32//8
f 34//76 39//72 40//74
f 34//76 40//74 33//75
f 35//77 38//70 39//72
f 35//77 39//72 34//76
f 36//57 37//54 38//70
f 36//57 38//70 35//77
f 27//59 36//57 35//77
f 27//59 35//77 28//78
f 28//78 35//77 34//76
f 28//78 34//76 29//79
f 29//79 34//76 33//75
f 29//79 33//75 30//80
f 30//80 33//75 32//8
f 30//80 32//8 31//7
f 23//81 30//80 31//7
f 23//81 31//7 22//6
f 24//82 29//79 30//80
f 24//82 30//80 23//81
f 25//83 28//78 29//79
f 25//83 29//79 24//82
f 26//61 27//59 28//78
f 26//61 28//78 25//83
f 16//63 26//61 25//83
f 16//63 25//83 17//84
f 17//84 25//83 24//82
f 17//84 24//82 18//85
f 18//85 24//82 23//81
f 18//85 23//81 19//86
f 19//86 23//81 22//6
f 19//86 22//6 20//5
f 12//87 19//86 20//5
f 12//87 20//5 11//4
f 13//88 18//85 19//86
f 13//88 19//86 12//87
f 14//89 17//84 18//85
f 14//89 18//85 13//88
f 15//65 16//63 17//84
f 15//65 17//84 14//89
f 6//67 15//65 14//89
f 6//67 14//89 7//90
f 7//90 14//89 13//88
f 7//90 13//88 8//91
f 8//91 13//88 12//87
f 8//91 12//87 9//92
f 9//92 12//87 11//4
f 9//92 11//4 10//2
f 10//2 1//1 2//73
f 10//2 2//73 9//92
f 3//71 8//91 9//92
f 3//71 9//92 2//73
f 4//69 7//90 8//91
f 4//69 8//91 3//71
f 5//53 6//67 7//90
f 5//53 7//90 4//69
